<mxfile host="Electron" modified="2024-07-28T16:29:37.861Z" agent="Mozilla/5.0 (Windows NT 10.0; Win64; x64) AppleWebKit/537.36 (KHTML, like Gecko) draw.io/24.4.0 Chrome/120.0.6099.109 Electron/28.1.0 Safari/537.36" etag="Fi4gwc4Kzc5hz1wzh5XE" version="24.4.0" type="device" pages="2">
  <diagram name="Desenho da arquitetura" id="W10ILnrtg_2nisSN7WdT">
    <mxGraphModel dx="1050" dy="621" grid="0" gridSize="10" guides="1" tooltips="1" connect="1" arrows="1" fold="1" page="1" pageScale="1" pageWidth="1400" pageHeight="850" math="0" shadow="0">
      <root>
        <mxCell id="0" />
        <mxCell id="1" parent="0" />
        <mxCell id="Gt47qOoFATWf242-LcPq-46" value="" style="rounded=1;whiteSpace=wrap;html=1;strokeColor=#00bef2;" parent="1" vertex="1">
          <mxGeometry x="520" y="40" width="800" height="600" as="geometry" />
        </mxCell>
        <mxCell id="OgaaJsmOp9_DyPHTj6QK-1" value="" style="rounded=1;whiteSpace=wrap;html=1;strokeColor=#00bef2;" parent="1" vertex="1">
          <mxGeometry x="1123.44" y="147.5" width="156.56" height="165" as="geometry" />
        </mxCell>
        <mxCell id="Gt47qOoFATWf242-LcPq-49" value="" style="rounded=0;whiteSpace=wrap;html=1;strokeColor=#00bef2;" parent="1" vertex="1">
          <mxGeometry x="723.44" y="680" width="166.56" height="100" as="geometry" />
        </mxCell>
        <mxCell id="Gt47qOoFATWf242-LcPq-35" value="" style="rounded=1;whiteSpace=wrap;html=1;strokeColor=#00bef2;" parent="1" vertex="1">
          <mxGeometry x="723.44" y="80" width="156.56" height="520" as="geometry" />
        </mxCell>
        <mxCell id="Gt47qOoFATWf242-LcPq-6" value="" style="verticalLabelPosition=bottom;html=1;verticalAlign=top;align=center;strokeColor=none;fillColor=#00BEF2;shape=mxgraph.azure.computer;pointerEvents=1;" parent="1" vertex="1">
          <mxGeometry x="240" y="160" width="200" height="200" as="geometry" />
        </mxCell>
        <mxCell id="Gt47qOoFATWf242-LcPq-4" value="&lt;font style=&quot;font-size: 12px;&quot;&gt;Totem&lt;/font&gt;" style="text;html=1;align=center;verticalAlign=middle;whiteSpace=wrap;rounded=0;" parent="1" vertex="1">
          <mxGeometry x="240" y="360" width="200" height="40" as="geometry" />
        </mxCell>
        <mxCell id="Gt47qOoFATWf242-LcPq-7" value="" style="verticalLabelPosition=bottom;html=1;verticalAlign=top;align=center;strokeColor=none;fillColor=#00BEF2;shape=mxgraph.azure.user;" parent="1" vertex="1">
          <mxGeometry x="80" y="160" width="150" height="150" as="geometry" />
        </mxCell>
        <mxCell id="Gt47qOoFATWf242-LcPq-8" value="&lt;font style=&quot;font-size: 12px;&quot;&gt;UsuÃ¡rio&lt;/font&gt;" style="text;html=1;align=center;verticalAlign=middle;whiteSpace=wrap;rounded=0;" parent="1" vertex="1">
          <mxGeometry x="80" y="320" width="160" height="40" as="geometry" />
        </mxCell>
        <mxCell id="Gt47qOoFATWf242-LcPq-39" style="edgeStyle=orthogonalEdgeStyle;rounded=0;orthogonalLoop=1;jettySize=auto;html=1;exitX=0.995;exitY=0.63;exitDx=0;exitDy=0;exitPerimeter=0;" parent="1" source="Gt47qOoFATWf242-LcPq-12" edge="1">
          <mxGeometry relative="1" as="geometry">
            <mxPoint x="720" y="243" as="targetPoint" />
            <Array as="points">
              <mxPoint x="685" y="242" />
            </Array>
          </mxGeometry>
        </mxCell>
        <mxCell id="Gt47qOoFATWf242-LcPq-12" value="" style="aspect=fixed;sketch=0;html=1;dashed=0;whitespace=wrap;verticalLabelPosition=bottom;verticalAlign=top;fillColor=#00BEF2;strokeColor=#ffffff;points=[[0.005,0.63,0],[0.1,0.2,0],[0.9,0.2,0],[0.5,0,0],[0.995,0.63,0],[0.72,0.99,0],[0.5,1,0],[0.28,0.99,0]];shape=mxgraph.kubernetes.icon2;prIcon=svc" parent="1" vertex="1">
          <mxGeometry x="550.5" y="182.5" width="98.99" height="95" as="geometry" />
        </mxCell>
        <mxCell id="Gt47qOoFATWf242-LcPq-11" value="" style="aspect=fixed;sketch=0;html=1;dashed=0;whitespace=wrap;verticalLabelPosition=bottom;verticalAlign=top;fillColor=#00bef2;strokeColor=#ffffff;points=[[0.005,0.63,0],[0.1,0.2,0],[0.9,0.2,0],[0.5,0,0],[0.995,0.63,0],[0.72,0.99,0],[0.5,1,0],[0.28,0.99,0]];shape=mxgraph.kubernetes.icon2;prIcon=pod" parent="1" vertex="1">
          <mxGeometry x="742.71" y="125" width="114.58" height="110" as="geometry" />
        </mxCell>
        <mxCell id="Gt47qOoFATWf242-LcPq-19" value="" style="aspect=fixed;sketch=0;html=1;dashed=0;whitespace=wrap;verticalLabelPosition=bottom;verticalAlign=top;fillColor=#00bef2;strokeColor=#ffffff;points=[[0.005,0.63,0],[0.1,0.2,0],[0.9,0.2,0],[0.5,0,0],[0.995,0.63,0],[0.72,0.99,0],[0.5,1,0],[0.28,0.99,0]];shape=mxgraph.kubernetes.icon2;prIcon=pod" parent="1" vertex="1">
          <mxGeometry x="742.71" y="260" width="114.58" height="110" as="geometry" />
        </mxCell>
        <mxCell id="Gt47qOoFATWf242-LcPq-20" value="" style="aspect=fixed;sketch=0;html=1;dashed=0;whitespace=wrap;verticalLabelPosition=bottom;verticalAlign=top;fillColor=#00bef2;strokeColor=#ffffff;points=[[0.005,0.63,0],[0.1,0.2,0],[0.9,0.2,0],[0.5,0,0],[0.995,0.63,0],[0.72,0.99,0],[0.5,1,0],[0.28,0.99,0]];shape=mxgraph.kubernetes.icon2;prIcon=pod" parent="1" vertex="1">
          <mxGeometry x="742.71" y="400" width="114.58" height="110" as="geometry" />
        </mxCell>
        <mxCell id="Gt47qOoFATWf242-LcPq-21" value="Deployment" style="text;html=1;align=center;verticalAlign=middle;whiteSpace=wrap;rounded=0;" parent="1" vertex="1">
          <mxGeometry x="710" y="80" width="120" height="30" as="geometry" />
        </mxCell>
        <mxCell id="Gt47qOoFATWf242-LcPq-22" value="svc lanchonete-api" style="text;html=1;align=center;verticalAlign=middle;whiteSpace=wrap;rounded=0;" parent="1" vertex="1">
          <mxGeometry x="530" y="277.5" width="140" height="30" as="geometry" />
        </mxCell>
        <mxCell id="Gt47qOoFATWf242-LcPq-23" value="svc mongodb" style="text;html=1;align=center;verticalAlign=middle;whiteSpace=wrap;rounded=0;" parent="1" vertex="1">
          <mxGeometry x="930" y="277.5" width="140" height="30" as="geometry" />
        </mxCell>
        <mxCell id="Gt47qOoFATWf242-LcPq-24" value="pod&amp;nbsp;lanchonete" style="text;html=1;align=center;verticalAlign=middle;whiteSpace=wrap;rounded=0;" parent="1" vertex="1">
          <mxGeometry x="730" y="230" width="140" height="30" as="geometry" />
        </mxCell>
        <mxCell id="Gt47qOoFATWf242-LcPq-25" value="pod&amp;nbsp;lanchonete" style="text;html=1;align=center;verticalAlign=middle;whiteSpace=wrap;rounded=0;" parent="1" vertex="1">
          <mxGeometry x="730" y="370" width="140" height="30" as="geometry" />
        </mxCell>
        <mxCell id="Gt47qOoFATWf242-LcPq-26" value="pod&amp;nbsp;lanchonete" style="text;html=1;align=center;verticalAlign=middle;whiteSpace=wrap;rounded=0;" parent="1" vertex="1">
          <mxGeometry x="730" y="510" width="140" height="30" as="geometry" />
        </mxCell>
        <mxCell id="Gt47qOoFATWf242-LcPq-36" value="(...) HPA - 10" style="text;html=1;align=center;verticalAlign=middle;whiteSpace=wrap;rounded=0;" parent="1" vertex="1">
          <mxGeometry x="790" y="570" width="80" height="30" as="geometry" />
        </mxCell>
        <mxCell id="Gt47qOoFATWf242-LcPq-37" value="" style="aspect=fixed;sketch=0;html=1;dashed=0;whitespace=wrap;verticalLabelPosition=bottom;verticalAlign=top;fillColor=#00BEF2;strokeColor=#ffffff;points=[[0.005,0.63,0],[0.1,0.2,0],[0.9,0.2,0],[0.5,0,0],[0.995,0.63,0],[0.72,0.99,0],[0.5,1,0],[0.28,0.99,0]];shape=mxgraph.kubernetes.icon2;prIcon=svc" parent="1" vertex="1">
          <mxGeometry x="950.5" y="182.5" width="98.99" height="95" as="geometry" />
        </mxCell>
        <mxCell id="Gt47qOoFATWf242-LcPq-40" value="" style="endArrow=classic;html=1;rounded=0;entryX=0.005;entryY=0.63;entryDx=0;entryDy=0;entryPerimeter=0;" parent="1" target="Gt47qOoFATWf242-LcPq-37" edge="1">
          <mxGeometry width="50" height="50" relative="1" as="geometry">
            <mxPoint x="890" y="242" as="sourcePoint" />
            <mxPoint x="700" y="310" as="targetPoint" />
          </mxGeometry>
        </mxCell>
        <mxCell id="Gt47qOoFATWf242-LcPq-43" value="pod mongodb" style="text;html=1;align=center;verticalAlign=middle;whiteSpace=wrap;rounded=0;" parent="1" vertex="1">
          <mxGeometry x="1131.72" y="277.5" width="140" height="30" as="geometry" />
        </mxCell>
        <mxCell id="Gt47qOoFATWf242-LcPq-45" value="" style="endArrow=classic;html=1;rounded=0;exitX=0.995;exitY=0.63;exitDx=0;exitDy=0;exitPerimeter=0;" parent="1" source="Gt47qOoFATWf242-LcPq-37" edge="1">
          <mxGeometry width="50" height="50" relative="1" as="geometry">
            <mxPoint x="1020" y="330" as="sourcePoint" />
            <mxPoint x="1120" y="242" as="targetPoint" />
          </mxGeometry>
        </mxCell>
        <mxCell id="Gt47qOoFATWf242-LcPq-48" value="" style="shape=image;verticalLabelPosition=bottom;labelBackgroundColor=default;verticalAlign=top;aspect=fixed;imageAspect=0;image=data:image/png,iVBORw0KGgoAAAANSUhEUgAAA4QAAAH0CAMAAABSLRPhAAAAYFBMVEUCmecyKpUUDocFVroEdc9jXq8kG40HO6gJIpZjgsdPZ7iMn9O7zeqjtt7T6fgtPaIAvP8KAIChnc6RjcaxrtfRz+dFPp6/vd7d2+2Dfr/o5/PIxuPz8/lSTKZ0b7f///9szgBbAAAo2ElEQVR4XuzTWQ2AMBQAQTS83qWAf5eoIJAwY2C/drteBXxqQjAhYEIwIWBCMCFgQjAhYEIwIWBCMCFgQjAhYEIwIWBCMCFgQjAhYEIwIWBCMCFgQjAhYEIwIWBCMCFgQjAhYEIwIWBCMCFgQjAhYEIwIWBCMCFgQjAhYEIwIWBCMCFgQjAhYEIwIWBCMCFgQjAhYEIwIWBCMCGYEDAhmBAwIZgQMCGYEDAhmBAwIZgQMCGYEDAhmBAwIZgQMCGYEDAhmBAwIZgQMCGYEDAhmBAwIZgQMCGYEDAhmBAwIZgQMCGYEDAhmBAwIZgQMCGYEDAhmBAwIZgQMCGYEDAhmBAwIZgQMCGYEDAhmBAwIZgQMCGYEDAhmBAwIZgQTAiYEEwImBBMCJgQTAiYEEwImBBMCJgQTAiYEEwImHDN2UvZW84RKY2RUkTOre2lz7keikKPcxy11vjrhDc7d7AjKQgEYBhKVI8WgoAAvP9bjpPdZNKk3Tats22wvpM3DMmfsi4GbeSU2pkDvgDdHJOTRi/5LIQEOeNf6W4RWuVSnDt8S8dj65TOxxASHCDeMEKrXMvxFDw6+XaKhJgO8Q4RlvkBno3Hd6YiIRLxThEG72bA3zQ7E/J+hGi4T4TBuBl3ABhW/dD3ffNH36zPwzcA3IEntTdEQjjeI8Kg0r8DhGEtTgjGxtcYE2Itc4DjIRJi8A4RmsRx0xpfmd5+TKwtHgmRkFh9hFZG2Jp9TVPUdyTFrVPmyeZthGDdEfqNEQh9I8azMbY1Fbtk8nOE6Joj9KnDJ4r+zsbE0xLheYeEmBoj3C4QesHG/0E0/b4OCVF1RrhMHEtDEeCvY09C5G7J9SMUoYpQBtgINn6C6AELUYVcM0IRLq4rCxRs/CDWDPgIks21IhShbvFRL8bCJTqMPteIUIRyvkyBJSaKDrnMlSEUYZi6Yg8cL6aYh50LuR6EIrQJ8AdCw8YLYs3jW7Y214FQhLotF8HLYn19yyGhCHUsPkMv7nE9jDp/XrBeyWmSSucXrJGTk+rgD3YW671dQj7D4o0xOr8UFu29PnDqYr1RcnKTlMosb96z9jYcjdCqKUXOO0DgPCan9Kcj/KLujJYbZ2EobEggvdsBMBgb2Pd/y3/bf6fOBkDCGHdybpshtNXnI4TA/yL46EtDr7fDn8dwlYyKXYTJEl/23/PQxrXb+KYC4d+DUBLi8fZ2rx0L3zNylZiNhnCxi4bWc9eLTJqQeXC6ZRDLvudATdT+IIRz/ky6ifbnIFyeEaSdJnj96vDnMdRBpDLSp/gwKvo6gLzOn2fh7ED/gnUvVLi2Fn5B4owl0BFRkIk4mreYkGMsACHQCZaIu/VHIPTxn035YciML5bGn2lnk6XwovKFVVP6IHbmPlJRFGW6yZgyjcEO+v1SETdjn1K1qW8H/8pmboNwjVTUxZbrIVT0CcGheej4xSFV1yO41ULUPAXoampR6DzuRr+6CBpDm8XCQQiWQKhqMwIWUb6GIBcluQYIvRMIMX8thJYkLviuGOKjcFQaUQ1rCwDELegFVMAyC8oFC1i4Unx0uIdnAieujw1hPBZCy5EzkRdCuIYnF9kRfGsMw5U56QzHaPibcAhQqs4NEShRRAA5IXAQMoFVBObdM8gCsEMWHIROoMUug1DSBMF31Z0CUTj2JCn4oGYdMZhA3JlNzQTw7UICDZKQ00ZFg0J2CNC/yIqBkDXNxF8C4WKSiug765akZMNlqUBSGLqevwnEMPYwzjCEKxct4jN4GSiseAxj4mEIg2iS8RdAqBIE310PILPrUk+AETRCDmKwn8KI/X5PRJtoSqHnolEy8QoUxsFCEDLRKIOHsN8GdwTfXdPHYDNsj46OGOwJoAAyCENoRKuI75644PsYTXZsAAidaFYYDKG6fFdi+rrr91P3+7gDwvcLdyuIGCC6AglkZ53EoZ2Yif5v1f1jGHFUsXcmwqEg7LfB8fWYe/Y60Y/HbRqC4uMqM3RiiAzQm4xVvtwv0WGnxBG9bLlz0S7qEwPrh3ClHb/OEAg1BZpEx53CTS8uPZ3EaW+q1MPvuYTVT89KT7PUDf3s38QhkS4jTNfziziu2O+n3I+CMO7bEuM7O2F93KZhddI48tb1QTLAN3WsaDzHQuhJx5oWCn0SmHMuGgpPPJwDoewYYwSEq7nGBncPxHB4H1SgMaN27jcxTBqVjJr4eRDKL5uMBpuQRgHJQZ+kJkTHQpFRAiULz02im8phSk/6K0cwl+DRzqv/vc5bsbt8GwGhpVfY4PQQrbpNQ8yQ2vcywnSzkMNtYtagcqkFXYpYxa78DXerJGDUusycltesPmPOM2SElP3/ALIuoCBkiI7XpfChARA64OD8IBOkvwKLTmlt/0jL/KP04z7EDE+rksLxTKL9PGw6K0ZFTTzqz88timUJ81BllCyogotqz2tdLWrZmnT+p2K1bJTvI1RcStfX3VT5J3YiDOGSHUXiGkv12RB6dsEVMtMLgiTKOTeXTQWe2OEIM2T+fAhjdr8Y13FMNNDVLwEjNDulVUch+AyamC8RVzHCNGpFNZn0eZuE919U1cHMmrADQMgEYMm1hbA5GcKFYIoi/bG/iwInTb2OvyA77Pdjcv7CkMNLuZIZOpAeVl8RGo9tctaojfPgNo/YfdHIvRNbZpRlJ16kx+NKJSupQ7gCzT1AY4DthzDtwRt6tfZExS7cGdNFGeCWxe7KLN+G70/QDVm6kXA+RqsFRrKim+gCnEFTlxmOV3JbkGtXtrj8xi0tsSqBwg9AYawk9BbfBMU6ICw/toLioB/22yCXvuXqkFyRpt8ER5VnVOG/CvuJwvjJXCNnw09KeGg6IUe0BoJ/l6eV/C3mfwIjH8prWJrleK5CSDBgVYBdz4NQPs/NhmTbfDp1NUh039svOqZzfwDJ1NBXM0PLOdRosgJWAHLkou3yrk5Vi24sp8Vh1G+cE4aEcGgIVYFwxjUylIlVp0GoXob0MuGwd7Pu3nm83SZlo/4XOHFl0njrF0f9VyXSxrYy0gaZ0sHEbvhTxGCNJxk1O8NoXjQjhwjFug8H2UkhdE09obqhj3s6Ws3TGfPZdeztg9Ptdns8PvrPEXnHOx4LU+KBRv8ZM5y/VeFxjRUeW2ojJXZW1AjlT9NqNmrwDXm6pULVu+MaivTIltPVscjn2lRyoydB6AoVCs1y3StTx2ute/umJUnWq0gA0/X9vKdF51I4I+POIK0nlnxHo8Kw4ptz8jPYVFW5qToVA/wVkg9F6zEADpB7x9Kq2jT25dtTIFTlGwi8DkdfiD3dHnDW3i4b2p4L0z03DyN9Eihy2JXrHoZrZwLOW3k5IlYggIrMUnSaxVpO1m0uUUsRTHJRhLDp4hdXglDj/bQErToDQlkvbnsZBAAi/LLA/s2AJE9Ozj59nUScpu/TiV+HpERGRP1H3bkuyY3CUHigCvJza8wdA7z/W25laxPVZCy3ZIxDnwdou20+HxBCyocw8CmkQkP0FOrKCp2qaWY/BnUytix9fbX1CQpJaTSDG79j8hy6YXRm5hZwHYcQGCxnm+bw6NEO9fjU7/Z86aDk50V5k1GLsHMg9ERYJfXrW86i95yR6DE+cfvuvDRmvrIL1jSPv+CK3XE/kUQg/G4wkrtG1eMQWmLhmpiOv0s/fvznPz9x/ICpH7fMF1+Q2U6XrFs+na3sj0IYqD6Gfau/jwd/KjyqacgBz4hks46r7KZVwjnfiliY4LHTcGNjLgqHIdwlMMga93ylzhArmQYXtbVKQzZ7H4VQUCGMwMOYJL7Qa/RAo+7jCs3zTkIqXi3QhEDIGaaYA8dBCKMG/CnKtrFA9MnImQuHYlOVrx3Qp1BImzQ6v4MTRuBhULhRmFc2D/LPri4qdsc8dhpzZYmvLvcxCIsGHySrbLRn5pstkLJo+zRla5rXCH4qbY6xVSrK+zihHUUQJpKCPBYNLTjKDYGyIRQ8etwxhDsLQgzbMQj91e9/tMmfO2CAtGFIS5+quFuTmlLVV6Va2uweOUQpeMXLOyHAPqiMQrjTT2m1PiCrrxXm0JT9OlA+hjCwo0wFDw7zIRxfCZWQqpBHcz/7C+pIZrCE/5tM6tps6Y8LvkhmHSecD2FEA+/xEQhzvVodRzLpIUP4yi7IG4UfrMBoGPKfLaWmvNDyUwvftniw4pTI80E786nQn1fW4AFv4YTmPggrGUJ1Z8TNAfzjELrO2qNorDALSN4KYZbgplOUNYnyYjSzk97c6kw6r+KE8yF0KFqZAeHMZh0CgZBLj8accBzCNAChuHfnAC8HsF3qbCkGHGmMnvqea8L1IeQ3ChBbR4Kx3HmkXnA6CuHAaQx6uMdrobFW+pMCQzDLOeH7Q8gscwplechOGC5AuHN/ppc7IdzhqNscVcSsGY1e9eNmKMBq1ndCOw7hjkM4PTBTT3d2f9f/Iq8J7YU1oWNvUeQbo6NFT96+U8gbQl/oP8263N3WBO70T7VS8os74ftDiN+9rsnGDiJvUdgL0dHCzkaPZO/8oDKiZjOoaI3RdYrHaaq19EdlwL7fMGPGBKYKG8J012a9OD7gAvxxITS8WWRDDPW5tDUL+SFTexJVUjNu8aehl4ZMSR/bLXRvmTu6da7YEG4H5NzVSlzD/b+E0PNyRx0Cofh7CdwFtsSmyLw+mgGYiSM7j/UvTUkzTEhXd8LCMAM+hJMTuCv1lA05d9Rz3gl+lEk/dZSpjaU6jB9RzP5lt04r/86U1IKpLOuEaLBhPoSRUfWPecCPGAipyNpU8mqiJ8zYyjOHeh2lvdp4eQeRX2dK+EhIaRL5+X0KmRd2QmxZ5edD2FlVqI3/pg0xVEGdR1YsUyGyVqAGW+LZZ8pb+KmR0QD1/BHtxPnTJqGA9UOC56yWdkLEDcp8CAVno9BjYzZRx75FINyR2yCzYzGo6iOFniw9qDVQTl9GnC1q5bUsCCGHWVElt7wTbsjImgqh4kRmNGablTqZNAgkBbkNMjtxrOQhqFyCUAAkt4p4eEkxMi2yH0rLGErlqOs6IT5Vmwoh3ruB0TQ8s2bSeBRUcOajAl1BNlZFwHBX8d9t6qgWL0y6eNYUE965ejyH1C3rhHh0I06EEAer0g1II46iyFliCaVHMTb3PI6VLPPL4Au40rwFoX0VkvGZ3ammPJy9Vpd1QpydOhNCvGuFI4/ZhvVaIuOz4RuNjp6lmk7rAiPaBhrCPGiE6nwJZy4E03cNxYmfEODhlnVCfIiG6RAqcq/MgCfKSaKZejzVTpIduSG8ou2oIgHmodZofqYRdn9m0e73VNR2uiA8o8OzVqhWd8IiCZ0QcWA9F0K8vpQhEqQxj9Rk6yknHwND/RG4XEYa9RJTzvcrEO5z9+kr2Cy+QhBgMcyOBObZHfu8rBPi33gZyYf3zCUIuyZSaE7qXnoS9fmsfdxO7HEXXtTfVFQK1W3tstXcE0wGhWXTA4s79XR4RgPzazohnr+iLbWQRL4GYUKabhIMSBbUVBLxptNpCrjckMwrfPUYP0m/EyvS/ZsPYZ5qhDBBEttX0nYxluBoBkrpX7+eXtkJ8UN5df9WvgDHhg9hkYcUevf6kumQesQXzCE+8ZByUM2ESlIeczhQdV8QbOjv8CE01JDDeEsi0WzYS4n71rwerVoB9Ui067MFAy0s7oTdISUnN4AoW3VIjSwcCHErBFUbf12yHV8ynwAkMuXAt0fmxSBZbTnoZYSv5DJWYKUFl0vPMaD1PR0bQrBwMdlDZpSsiGK4wzy/b6pa1gnhPhEJlVJqyutPRBshOsovTKG90PL1JfMRPen34HBoxwV7EmsCSeGFeNFTBmRGOjvwIYyT00/wWcJ4eLP4p3LYwGLk2k4In3G+ar8MYd/GL3kImVZps0YJHACBhF/JAkMe/x1RLkGY4C1OEuxE4F+64Vx/89guhV3YCYeKXOjMhHB81OqCODhDDsneYWlDQsdc7f0ShAJGxUzZgy4t2pT7prrtqTTuuqoTgszwAOJDGPUnX+EgQkgTGtRLQ4YMsgM3w4XQTTYSvNdVtffQLZ/JYYOZe1nVCUFq1Az4EHY3fMl2Cz7+pklkGmCZCaGBB/yAigsm/ZTZb0PGPZPDBu83rOiEw37Q+iCEPYxeMss78MlsS5YOWeow5ctFCD287HcVnMIIj2wVtvWdkD8jTZ0L4fAMro1Ed+C7y6WQntZXB/yUA2GB57GAVg/POLCnRZ0QFDRzMTMOYbej66d0i/VkMQAy/3boy6GP08dm+1JaNodNgiWs64Rw+pkqvfdxCOF4C4i9NaVu2ZMrjNWlyoSAA+ebwoewwfN9a6X5RwxhgmIXdUJakhee1jUOYc+VfUl2cIZSCWUXI98CUPREO3WdC+H7LwlxrxF5/qJwbScERYqxaMs/T8hpJkIp6cufRguEHuQLxNqm5k9JW+kDEMoFl4QLZ5LuEIle2QlBuUnSOByHELSJoaFfFIIPc3srp1c4N4K3wyPEpWKn6eO07ptvob+7IJPUTl4UyvWdEFTOmNDAwziEIMiSRhLJz1UMYIxkY9MUFM6hT7ETlc3Z/zGxU/XxKpwllS39vaUmZ5LmrclrOX45fJXDiAlftXdEB21ccO1NHw9D13HF8Kc6Q8W2A5CEoo5YZ6o+bI9mmc/eJeXlN3AacDzyf7Sy5V/2zkC3WRCI4xQF3ZZkgIioIu//lt/it+VSS2ulaEpyvwcwNcsvN7w/dx6IlLBfWz36nJmPy7BZCBHn+DF56Bq4PSYvZj7jLz2qni03KCi/GKb25jOGJdnxR6Pa6CIxjbqfmTOOsblXrY/D6mZ25hfHGr37QeTJ0zfNWsQGmjZpBeQvb1lBELIn+p6viDr1dXurHA80qFKBoIT8wfFXWZ8hI4XBPK8yqFUFTB8JQFBCuUBIWckAPEcRLU+zMsY2Rt7D+MQgKKH4gZRFLW+hTE0+K4YErYrx3iwFSo8INyAoofiDlFVIRKcGnwGJhl4MitGwgFVJRL246NODoIRAsCKaps2xVdGnKoF1VYqFCu71HgGCEoKIlVzDM0rVqKiGYcf4QwFBQutTgqCEVAQhtyLyfvB5MO4eemHDsZKiJOIPkHD0B4OghFARqbzG6FySpHsahjaYVqwLItZUJ0VmEJQQIOsjImVjTp9ntkfPDMFmRAUl8GwJETwTbnvImymjPDftHrmqzUYJPFtCBCUMc9POz6EczptZT81ooBEhHlCfLiGCEgJlRSUgL+9fDvuHObMu0A8EA8+VEMHEzLNc10PaZHOrwkzb979pAQa+nYQISgiUtQT4l39vNA1+ntGMBo+B28gjJERQwlLsghT3Nezmz28zq/H9WhW8hWWVPGjg+0uIoIRAUYdGZw2fFPoYnT+LhprW32VaLTG0M91tIEBgkUlCEJSwEEDM6fDbLjXnU17h7InL5Psn89ydW58Dyb7XlkckZhCUsBJA3H+lDQTFbjfttx/fFZWU1u6YFLiDeNrWfG4e+BYaI2Gy90BQQgqRmRgqKIYNvbP66qM+us1v+dbQ314GqIvYN04vIYLjLUQspJYrqJtn2AeqvkDB4/oaw2VrnoUONQRjqI9ZG4DgoKdSRFNeWeZav6Avm2tw0ltI22c3e9QlEXHI//hUICihgy8z0ZR0dQhc0FzehR5loX5qX1BFRCwEBmMjSNK5o5V4BVKDW+Ed5k63g7d6NscsbYHFkF9PDIAiIp5Cbi/QQSbbjq0dPLJnAjcVrxFsnnWBjGnLYLn32RZOCcp+nfrnD51W/TId+gfH4sZDT0M7aqX6plFaxzyg1b+jshcurtc28m16ZiAJwc0TT0IJ/7F39ltyqkoUV1rQZGZOB/wERd//Le9KMolnYpebCow5k8v+d7I6uuRHfUIZYB04eXv52MzK5dHwpG7bXp4+ff706Tkxhe1GqyTSUOyQUCa72BtMGMEarReHiQ+cjqXJevH43llmHnuWihrgsp0oQzhqYB0YTpp7OFy6fTxdTNzFz2/0kqpSgcZQjLFpqAocjWIuWVKD2YCoFtidoSCbuthS05LhVnWxStMSK20PM4ROf1cTBWFDxEnlwybL9viNnlJSKJEprGNDwvjW0a6Ek1/j5++VBpEDB2kO3ZZmhJ+WGUMwJDTSH6UskNSW/D/fqnlOSOGd9KPayAhYwGmAqYbZ4uGvVgPB1ohOseda46G4/BfKEA4p/FFqSEqrluCx5G06Cumy/RwXFBY6RZmwH3SQ1LyhiguWIK2hQ48ROnK1B1YdzeXOEErgj0ZBaMaz0Ez51UovwDCzpBROcRDWOkGFwuhgGXxYGWtw1H4VKrmAE5vBajOEp1+zSOWOYi3f1sYPQEefcrBn/51C8XwWAsd6ozJqjilDFnSkI9Ez/CcCHXaLk9EcrRlC2kHTuk6WmMFSb/fEyUekO4jVJR6mXLsoCKv4adyL1ywZCuRICp2K+AVgkhGFGUI6SxIBYc1sarbaPFpVaktIoX4hV28TsddEnqHwmqkZL3ysY2heap7EBBrjYyjMEA46PjVTJXLS0gTuvaIodIJ4U15aRlzHoFaOCGxZklGmlI6yZ81XmyEkMt1E4v6yOx+Wb+DctyTqX23hE3HRRRFh76Oa1qzmayC2TZ6maHZK8qtFG/cM4ah/qIr1R4V7O+ZvY6hlebT2/hRCoT0wGOGNFtF7+ah/RxZlQvhOYBnxE9Cw853jDOEmdHyVojj6LJNilbQdJ+PRoYpGL45u2FzGbTY3HRESArsBrFg8QQLHlHwLZjRTVHI5Q+iBKWSt0LXfG6J47mnJ+DzjHi0BCtWT+6UQoutYQ6iSOqNYQ5grqcphGAjO33yLRcQ+xx5h089SKvrPY4aQ3M8Ehg0HTEqa7rUvf2JPbxk4xIo+ZD6hvvtV3kX0S9aR+T16zaq1Nd1o2pUiyMASofzZre26tSScWmQIy7Ubx87YIZAdSTVr96i5tVwyhAdHEJtCrEYf5Nj5UcVIgBK1QJQ8L2INoR4jDSE9WGeWOCfyAGU/4b64AfizZbv/yLT+vklWJqRRvc0Q0jWjLxGqE0AomMVAw21NEUXE20UVKBYR0k45PrQdHbH0GRkTtXMRkP1xnohOUVbGHkd+KCI3kyEk4vRb5KnCt+K7o4I7DvuJt+rrIrZZRmuZsGW0dMRoU9IUWsI+QdeXgIfq0ZYI1f5kt8BNqm2GkC7+FjEUFnVE/O2ZxxO6w7qA66j5fXdbRHujQ2Afiiv1Uf3hZ8BW50m3ZEFBJ82qVoDSLrhVXGUIqfWByxR4lGiD24/PbkAVTeNfOKZlRZjiiRNYt+jlswRnCSdx5nGqsHx/S3JscNpzN6Y08Auj3XzGr54hNBrkZngqiuIL/XFxekhr8emfDcsC93B+NX+3r4oz8fG9j114G2V7VuZDIJOozbQFm4P9Z3P21zLEJyG6jjKEC8pc8FWDqjZcpJ+XDUqeU9jhsiDfGdV9shNMgnrFkvZHHRHrIYJ2WBUND34MeeZdj6zqzJIhJHYqsGjTtXTjzVI8b1D+dFe1qSCsCdctMiRsGVazpTy7IZT5kaJYG/IxaF4d8TdCK4wfM4S9Bg4pX1zPX+iDnnCgVZ5RqBK9TpVi7QhOGVXBsI3fGDBSZIkl/DHEiTfawgWWjzQVwft0Eof0xqwH/bhv0/VmCKfQKZrCNtXbiARZvQWkQ5DhENyhABSEltHJaWknUoI9Bbu2ZYbwzPNoEprCMjSE6uflcNJe4zTpJCgK+1Qv06Sob80syzHHdR8ZQacjPfBGgf2aSKgGfEgmB4UFaMZMHRZWxxkxy6oNq7K919HGZ9Aj6oni1C3epGPXDavjHaujvEks11l11vhZcvBW1EMvXPdyJB4oQ0hm027pEqR7N+FiSiJ6o9ka9gyMBcv7LYWjSGQIK6ISFg/hwkrjGEhf37WrL9HJBZZbKClyZm6ixWFPIEO4lRokZyL8OCHbsfW8fGkv/m0uxMnRpfZI4bKmim8Lkabl0RA9IzAoxPi72ay+FBpoJEyYx099RM0QjirHqK4ZQrBVF0kp3CWZtmP4d2Npf54/aMx3RvpVJNtMmkSbt+HFUG3gku2NVHoXhrBnsdBTEFp25sgD+jOEuweUtmZfI+cHP9D07xmgL8hrKu/3u0roVjepGh4NbzsaQ5bsvB4AhBCOLD93of61ZH9YGbALZQhn/Q4UFgKkAeADtW8qgk8BG0hCButk9WXD88Z6uGSXFhGIIcT5EUFA6CFS2MFWGUK4VzVfkqgSYO2BMGJ4e0GLBedAkrrUtwMHV0E4AQjdqgkBCDve3WeKgHBgQMhwYDOEThAURqq6Nd+pJj462DwXYvogOndTf0nMoO6TQmh5ycQSjlPiQ4jfqqQgxO4yLhRmCEE2AFLIP1jx5fZwVotbzhfu9Eu+VAZ94rpIzuC6JYWw5TXYlIRrFw3hlAZCGbQLZQihBkBhrMSDAVmtFstpYNT9msCV6BML4uhgHIPCXQMhLud5jVUGx4TuP2UJM4STABQmKnwPP13SRe4OKgGhOaAmybC/+Ko0z3oDxei07ii2hANnIpOcWgLCOY0l9BExYYaQuV01xJKOXdlDu3xF0Ap8lMYcn28gwtmElrtm7PTXJmZaaASt2zYKwokXE6rU2dGcmMEqAYUJ17YaFLAJ5miB1lcKl4d5mdv7MShcagglr0Th97/QUtJ2jkB1JDI+M69EQSFVpipRZAh7fYktxEZmR6t/VEe5Lw9cHZGOQVTSvr5YL8EYiVK283L0aXDb2shK0poEHTO5WM8v51SJ48Kj3NmVhY8/5vBg7maqBy0avGDiISx5aQx7Ng/Qj6/8QQg31vYyUxAa+BFx76jMEDKuYUhLYXE0M/ZkIQ7EvZzD9Gq7Pwmd1hkttI50RuMz9FLDtOQuOYVQPBIwWNZTG3AyiXGo2WYIKTmF6t7xujXIFO7JFkueGm/u93uZ/iErosaWHMIebIU4uXms+GAIPTBIaC8gmWq55wm7DCFwQXCpIv5+UtHcipr09jzFp1OgTzR50Npu7wGhYR3qdVSOceJd9GQ5bnF5hJD8i+SWCV2GkJZhj3CI9/0k9dWaHnzQtAwWDRinlxBCzzkCLGgqHspTEJogGODNbBLcF4VxFluGEDghIDBMXrSQJGj3Z3xDdV0k7jbHpiIeQr2wU4kLyPMDf5Y4Isg233zL3oM9KEMIviCIuWLV/Ey07HLyDWJP/2y7PgmAYFpXVCv3XhAadhajD85uKDIEZRh6T5PmeFStiNkMIY66cMUwPhnpxx9BvDyaus+fXp7/eXn6fBc/yKvqptGiqYGJjnRFtZi3FDKc+WCWGlXdhZqxng7BfLAfOZ1tHCUn07TgW1czhHiODq4YxlOohZdWerEDoAmBIDU6K5o+h2fApDHgbwsK5T4YY34ruTyD0HIuUl2pf5whhCPfQeyVevkfky1VcxWDRQ0ZTA+hnkK9QEkBNBEBBR08ulCLPGoCQtJMdjyTmiHEhYrrjGHRkKmgqrnEM64EmBb/PhCqBZgNeMnZHMqPPwF0Dd+HzQnnWoEtAfjAGULiO15kDG+00S2qGsz6TJaiBY5aegj1EDbaXqArCPE8JXtW4TEgIgGz0QCFEkyFyxCCWtVVxYqiPjF1RbX32IhXOlObQRCzpYfwkBTeD1iSS3ak/oILqTORJSGYGBV0DcpHFM5hll24DCFj3VyYJr19h4FIeBZFURXFu+H/zru10ZRWh9f+RCY9VSCDAtjacnxjBr0mZNArrb/4mV1J7ioZQj6F2CdNM+T3Wt00YDAVhLQG03+zUCN1j6hnXSZv0cssD0kv7fiN9WVuS60RhPSpKmXnHWbip4TLEDLjQtCq+ZFVaVLtlh5CWmoQmlR/NuWwDfIje2AqDyetAyCcyV/xcrWr9CVAOUPIGMsC8qQfVlUDVtsVEGLJQ46D8iQXyogNROKGLUNEeywNW4aQoV5pUs2HwxAXRnB98HoIhUMsD7LtOmMlzdYI2gEYECK/FktMGUKWJqX/TgyLWtMS43YFhPx172JsKU59YxkYr2C1W4aQJ1dqgOHfhSAx/unPQeiJbhog0BOwRkAY+TPDliHkavEaYPiXIahLt10AoQwEyIEOMCzRE10sUKUAEKKfIQr6GUK2rP6rMKxqaHqugLDzvxU/Uexy49tlCPnPFYJwKVPsCBlCrE6Aj3X76BlRHLGkh5BIa4CDVE5EeJBMCrsNQAgoBC+UIeSmZ4BuxYdA8IaWsBi3qyAkWqTRku1FhB1kUWg3AkLQaJfI088Q8rfNuvoAfihSOW2XQYiTi6pnFG9Bbyo/zrDEkNCDWqGx+E1IGUKYTrveHMZ3pkLJZbsSwm1WpwA5ULyFEga0RCnglof5ts6HmcF+yxDGaVYaq2FweHEkiCW6bbsWws0NNECW9kvWMAQt3FOcpYAZH+diO4JmHBkqszGUIYz69HX1odzQXd5tV0NID90V6ylAXcCit0Hv4+QJMGN4hNkN51aQgWCGEHgvH47DohYMz+1SCOnlOxhow2Z5Ph4t3PVzxos3/MuRfupxIzVZanmINTonmiHkZ8LErfgggeAef10P4Y7B3vaphrVbwj7GaIdH/Pl2ZIe2nZXDN8l2PC1Knieupm4d3pKohtUkDQUzhLv3hCX+tD3cj+NDiXZ7Z+GLKfpxHGd2cnaaTWvt6r2XcrXtyP0B7iilsGcaXzUtW3plCLfF6nA11eUG8XgxDZZ025+A8D8vl/w28gxhIk1SMyRuVfEnTSDWQLhLGUJ71UzBDCFfc6lZEvWtuMwCCs2SImHIEKrkPX0ZwoQySnPVvLNJLIAB5AaDGUIDbiv+s8oQbsuKLA4m8Xr+cDD490Poh1/liYhQoBlQfGUI08oRGGI1NUCRhV/N4A+Pmf77IbShMzGGC3o/M4TxGGogEChG3CNafMUPGGOM4P8ThNwhEh7c2XaVMoQYw1iJpq5v1Y4jQq+61XWD6cMI/o+9O8hxHYQBMCyQzJsthkIgBt//ltOdF+1IldI83NTfHX45QsEwf2eEXF6pkMY5z6VahMoyfOzx/qH6h38/D+XpTFB/hPmFxdmb078u1CIUvYX4UfzcmL84Qg7xidDo4dRN/UtKFqHAEj+GQ2L+7ggxPjfw1pl7hvPex7EIT3QDH5WTJ7m/MsLjC7gDsUYWoegpROVC64qmT+Vl8oGVoxpZhKJqHoceMvE6qOq4vxxYQqySRSgoD50dDiRlv4B5XmjzB17EUMoiFIQjKlOkQD0RAq9UD2wQ1ssiFD0p6rCkjRVAZb9Cp4s+4mIRCsozxOUCZFJ6IwF13BW85MJQi1BsawdiSTfWAw80uH4WAn8ei1AGoosLOFmWpDHCsrMCePE5aBEK2tv/PDL1o1VSfEHWu7mzDjUs2D1gES6zIbh4Ogd445cZmgt2IluEK9GOs4R4Cl9m2onNu7cFhcoXYRGKXhMU/8b8HKTa2Zzxm1NIxNdiEYq+5zaLiwe4Agn3w/mZnkaIzxTky7IIRa+5TRguxBcFV2C+Oz7Tc4MiKXo3FpwvW4Sr0bZnTK3NOQFg3JUyxoC7OWdrCfO+0W87d0wDABACQRAdhOT8u/ziNVAx42HbzSLmr/h7soPKBSBCQIQgQkCEIEJAhCBCQIQgQkCEIEJAhCBCoAKIEEQIiBBECIgQRAiIEEQIiBBECIgQRAiIEEQIiBBECIgQRAiIEEQIiBBECIgQRAiIEEQIiBBECIgQRAiIEEQIiBBECIgQRAiIEEQIiBBECIgQRAiIEEQIiBBECIgQRAiIEEQIiBBECIgQRAiIEEQIiBBECIgQRAiIEEQIiBBECCIERAgiBEQIIgRECCIERAgiBEQIIgRECCIERAgiBEQIIgRECCIERAgiBEQIIgRECCIERAgiBEQIIgRECCIERAgiBEQIIgRECCIERAgiBEQIIgRECCIERAgiBEQIIgRECCIERAgiBEQIIgRECCIERAgiBEQIIgRECCIERAgiBB4yk8j2o74n1QAAAABJRU5ErkJggg==;" parent="1" vertex="1">
          <mxGeometry x="725.72" y="685" width="162" height="90" as="geometry" />
        </mxCell>
        <mxCell id="Gt47qOoFATWf242-LcPq-53" value="" style="endArrow=classic;html=1;rounded=0;exitX=0.25;exitY=1;exitDx=0;exitDy=0;" parent="1" source="Gt47qOoFATWf242-LcPq-35" edge="1">
          <mxGeometry width="50" height="50" relative="1" as="geometry">
            <mxPoint x="880" y="710" as="sourcePoint" />
            <mxPoint x="763" y="670" as="targetPoint" />
          </mxGeometry>
        </mxCell>
        <mxCell id="Gt47qOoFATWf242-LcPq-54" value="" style="endArrow=classic;html=1;rounded=0;entryX=0.655;entryY=1.071;entryDx=0;entryDy=0;entryPerimeter=0;" parent="1" target="Gt47qOoFATWf242-LcPq-36" edge="1">
          <mxGeometry width="50" height="50" relative="1" as="geometry">
            <mxPoint x="842" y="670" as="sourcePoint" />
            <mxPoint x="930" y="660" as="targetPoint" />
          </mxGeometry>
        </mxCell>
        <mxCell id="Gt47qOoFATWf242-LcPq-55" value="" style="endArrow=classic;html=1;rounded=0;entryX=0.005;entryY=0.63;entryDx=0;entryDy=0;entryPerimeter=0;" parent="1" target="Gt47qOoFATWf242-LcPq-12" edge="1">
          <mxGeometry width="50" height="50" relative="1" as="geometry">
            <mxPoint x="450" y="242" as="sourcePoint" />
            <mxPoint x="830" y="360" as="targetPoint" />
          </mxGeometry>
        </mxCell>
        <mxCell id="Gt47qOoFATWf242-LcPq-18" value="" style="aspect=fixed;sketch=0;html=1;dashed=0;whitespace=wrap;verticalLabelPosition=bottom;verticalAlign=top;fillColor=#00bef2;strokeColor=#ffffff;points=[[0.005,0.63,0],[0.1,0.2,0],[0.9,0.2,0],[0.5,0,0],[0.995,0.63,0],[0.72,0.99,0],[0.5,1,0],[0.28,0.99,0]];shape=mxgraph.kubernetes.icon2;prIcon=pod" parent="1" vertex="1">
          <mxGeometry x="1144.43" y="170" width="114.58" height="110" as="geometry" />
        </mxCell>
        <mxCell id="OgaaJsmOp9_DyPHTj6QK-2" value="" style="verticalLabelPosition=bottom;html=1;verticalAlign=top;align=center;strokeColor=none;fillColor=#00BEF2;shape=mxgraph.azure.computer;pointerEvents=1;" parent="1" vertex="1">
          <mxGeometry x="320" y="510" width="120" height="113" as="geometry" />
        </mxCell>
        <mxCell id="OgaaJsmOp9_DyPHTj6QK-3" value="&lt;font style=&quot;font-size: 12px;&quot;&gt;Painel Administrativo&lt;/font&gt;" style="text;html=1;align=center;verticalAlign=middle;whiteSpace=wrap;rounded=0;" parent="1" vertex="1">
          <mxGeometry x="280" y="637" width="200" height="40" as="geometry" />
        </mxCell>
        <mxCell id="OgaaJsmOp9_DyPHTj6QK-4" value="" style="endArrow=classic;html=1;rounded=0;exitX=1;exitY=0.5;exitDx=0;exitDy=0;exitPerimeter=0;entryX=0.5;entryY=1;entryDx=0;entryDy=0;" parent="1" source="OgaaJsmOp9_DyPHTj6QK-2" target="Gt47qOoFATWf242-LcPq-22" edge="1">
          <mxGeometry width="50" height="50" relative="1" as="geometry">
            <mxPoint x="579" y="386" as="sourcePoint" />
            <mxPoint x="629" y="336" as="targetPoint" />
            <Array as="points">
              <mxPoint x="600" y="567" />
            </Array>
          </mxGeometry>
        </mxCell>
      </root>
    </mxGraphModel>
  </diagram>
  <diagram id="Y9pAYvZNijf5Qc3zh5fw" name="Arquitetura Hexagonal">
    <mxGraphModel dx="1500" dy="887" grid="0" gridSize="10" guides="1" tooltips="1" connect="1" arrows="1" fold="1" page="1" pageScale="1" pageWidth="700" pageHeight="700" math="0" shadow="0">
      <root>
        <mxCell id="0" />
        <mxCell id="1" parent="0" />
        <mxCell id="udGZEZTvrT1Kyhbiykb7-29" value="" style="ellipse;whiteSpace=wrap;html=1;aspect=fixed;strokeColor=#00BEF2;fillColor=#f5f5f5;fontColor=#333333;" vertex="1" parent="1">
          <mxGeometry x="80" y="80" width="520" height="520" as="geometry" />
        </mxCell>
        <mxCell id="udGZEZTvrT1Kyhbiykb7-30" value="&lt;font style=&quot;font-size: 24px;&quot;&gt;Domain&lt;/font&gt;" style="ellipse;whiteSpace=wrap;html=1;aspect=fixed;strokeColor=#00BEF2;fillColor=#d9d9d9;fontColor=#333333;" vertex="1" parent="1">
          <mxGeometry x="215" y="215" width="250" height="250" as="geometry" />
        </mxCell>
        <mxCell id="udGZEZTvrT1Kyhbiykb7-31" value="&lt;font style=&quot;font-size: 24px;&quot;&gt;Adapters&lt;/font&gt;" style="text;html=1;align=center;verticalAlign=middle;whiteSpace=wrap;rounded=0;" vertex="1" parent="1">
          <mxGeometry x="310" y="140" width="60" height="30" as="geometry" />
        </mxCell>
        <mxCell id="udGZEZTvrT1Kyhbiykb7-34" value="&lt;font style=&quot;font-size: 16px;&quot;&gt;External&amp;nbsp; Payment Service&amp;nbsp;&lt;/font&gt;&lt;span style=&quot;font-size: 16px; background-color: initial;&quot;&gt;port&lt;/span&gt;" style="shape=trapezoid;perimeter=trapezoidPerimeter;whiteSpace=wrap;html=1;fixedSize=1;rotation=0;" vertex="1" parent="1">
          <mxGeometry x="250" y="430" width="180" height="110" as="geometry" />
        </mxCell>
        <mxCell id="udGZEZTvrT1Kyhbiykb7-35" value="" style="shape=trapezoid;perimeter=trapezoidPerimeter;whiteSpace=wrap;html=1;fixedSize=1;rotation=-120;" vertex="1" parent="1">
          <mxGeometry x="380" y="215" width="180" height="110" as="geometry" />
        </mxCell>
        <mxCell id="udGZEZTvrT1Kyhbiykb7-36" value="" style="shape=trapezoid;perimeter=trapezoidPerimeter;whiteSpace=wrap;html=1;fixedSize=1;rotation=120;" vertex="1" parent="1">
          <mxGeometry x="120" y="210" width="180" height="110" as="geometry" />
        </mxCell>
        <mxCell id="udGZEZTvrT1Kyhbiykb7-37" value="&lt;font style=&quot;font-size: 16px;&quot;&gt;Input ports&lt;/font&gt;" style="text;html=1;align=center;verticalAlign=middle;whiteSpace=wrap;rounded=0;rotation=-60;" vertex="1" parent="1">
          <mxGeometry x="180" y="250" width="60" height="30" as="geometry" />
        </mxCell>
        <mxCell id="udGZEZTvrT1Kyhbiykb7-38" value="&lt;font style=&quot;font-size: 16px;&quot;&gt;Persistente ports&lt;/font&gt;" style="text;html=1;align=center;verticalAlign=middle;whiteSpace=wrap;rounded=0;rotation=60;" vertex="1" parent="1">
          <mxGeometry x="440" y="255" width="60" height="30" as="geometry" />
        </mxCell>
        <mxCell id="udGZEZTvrT1Kyhbiykb7-43" value="" style="verticalLabelPosition=bottom;html=1;verticalAlign=top;align=center;strokeColor=none;fillColor=#00BEF2;shape=mxgraph.azure.user;" vertex="1" parent="1">
          <mxGeometry x="40" y="145" width="47.5" height="50" as="geometry" />
        </mxCell>
        <mxCell id="udGZEZTvrT1Kyhbiykb7-44" value="" style="dashed=0;outlineConnect=0;html=1;align=center;labelPosition=center;verticalLabelPosition=bottom;verticalAlign=top;shape=mxgraph.weblogos.mongodb" vertex="1" parent="1">
          <mxGeometry x="590" y="140" width="41.2" height="86.2" as="geometry" />
        </mxCell>
        <mxCell id="7TsEF2UiCKweqi1ukegG-2" value="" style="shape=image;verticalLabelPosition=bottom;labelBackgroundColor=default;verticalAlign=top;aspect=fixed;imageAspect=0;image=data:image/png,iVBORw0KGgoAAAANSUhEUgAAAgAAAAIACAYAAAD0eNT6AAAACXBIWXMAAAsTAAALEwEAmpwYAAAAAXNSR0IArs4c6QAAAARnQU1BAACxjwv8YQUAAEioSURBVHgB7d0NaF5Xnuf5oxe/ZBOwa1iwaBpLtQnYXUwsFeyu3XmxHXY7drHOWEnNYjcxFYeFuLsccEJtObsJtJ1dUjtJqE0McTEuBmLXOBDDdMXGGTqu6aFtp5xK5oWSHKZbgWRa8gyNDDOUNCQTy5GlOb+j58pPFD33nvs89z7Pvfd8PyDkFzmxpUf3/M7//M85XfOWAQAAQek2AAAgOAQAAAACRAAAACBABAAAAAJEAAAAIEAEAAAAAkQAAAAgQAQAAAACRAAAACBABAAAAAJEAAAAIEAEAAAAAkQAAAAgQAQAAAACRAAAACBABAAAAAJEAAAAIEAEAAAAAkQAAAAgQAQAAAACRAAAACBABAAAAAJEAAAAIEAEAAAAAkQAAAAgQAQAAAACRAAAACBABAAAAAJEAAAAIEAEAAAAAkQAAAAgQAQAAAACRAAAACBABAAAAAJEAAAAIEAEAAAAAkQAAAAgQAQAAAACRAAAACBABAAAAAJEAAAAIEAEAAAAAkQAAAAgQAQAAAACRAAAACBABAAAAAJEAAAAIEAEAAAAAkQAAAAgQAQAAAACRAAAACBABAAAAAJEAAAAIEAEAAAAAkQAAAAgQAQAAAACRAAAACBABAAAAAJEAAAAIEAEAAAAAkQAAAAgQAQAAAACRAAAACBABAAAAAJEAAAAIEAEAAAAAkQAAAAgQAQAAAACRAAAACBABAAAAAJEAAAAIEAEAAAAAkQAAAAgQAQAAAACRAAAACBABAAAAAJEAAAAIEAEAAAAAkQAAAAgQAQAAAACRAAAACBABAAAAAJEAAAAIEAEAAAAAkQAAAAgQAQAAAACRAAAACBABAAAAAJEAAAAIEAEAAAAAkQAAAAgQAQAAAACRAAAACBABAAAAAJEAAAAIEAEAAAAAkQAAAAgQAQAAAACRAAAACBABAAAAAJEAAAAIEAEAAAAAkQAAAAgQAQAAAACRAAAACBABAAAAAJEAAAAIEAEAAAAAkQAAAAgQAQAAAACRAAAACBABAAAAAJEAAAAIEAEAAAAAkQAAAAgQL0GQCFNT90wU9M33Hu9TYxP3f5192sz9v2X7teujU8v/rlrtY+rN7HMr8VZu3a1WWPfImuW/Hz9wJrax91hf32V+3H/wFr3MWtrH7fe/ry/f60BUExd85YB0DYTE1OLA3r0fuHHM27wjgZ8DfJVoXCgQCAKD/q5gsL62vtNg31fCxgA8kcAADLmBnU7yF8dmfza4P5x7edobNPQQhCIQoJ+TkAA8kEAAJqw3CD/8ch1N4Ov0sy9SKKKwXoXDNa5cOBCgg0HANIjAAAJNNC/f3HcDvbXawM9M/miURggGADpEACAmmhWr8F+1A7yzOjL78HtA7WlhIVg8OC2AQNgAQEAwaqf2S+8nzSoPhcEbDCIQgGVAoSKAIAgaHZ/dXTSDfLnz37iyvhVn9nPr8tmC17X9Wovd6i34F4XCvrNVgUDGg4RCAIAKika8DXYa9DXDL8s5u+0g89deltl5vrWmnn92P6a3t/+vdrPa2/OnXU/zknX5zY0fbEQnLonbweDLv3Y/l6X/b3oY6Lf75qcXvy9slioEPSZR4Y3EAhQWQQAVEJZBnzNyuf71riBXQP2nGbpdtCeu6fvawN9VamaoGDgQoLeKzDU/VrXZ9dNEdUHAvoIUBUEAJSW1vDfPTtWqJK+m6HbAf6WBnQN9vYtGtyzKslX3dcDwaTptm/ux59eL0wVQYHAhYHakgFQRgQAlEb9LF8Dfye34i0M7OsW3t/dtzDIr1tb6dl7ESgILAaCWjhwYaGDlQPtMlAQ2GUDwSO7NxqgLAgAKDQN+qdPjXRslq8Z/bwd6N0gz0BfaFEY6B4dXwgJHaoY7Bre6KoDW+1SQXT8MVBEBAAUTv2g3861fA32c0P9C7P6wYHFMj7KS82J3ddvh4LukYm2hgJVBvbtHyQMoJAIACgEDfrHj31kLtsBvx2D/tKZ/a2hAQb7QCgU9CgMRKFgdMK0g5oIFQa0TEAYQBEQANAx7ZzpR7P7W5vsQH/PwqBPGR+RHhsGuj6dND1Xx9tSJaAygCIgAKCtNOifPzdmTp8czXXQrx/w5+zsXgM+4GthuWC8LYEgCgOqDHDeANqJAIC2eP/SuJvpv3VyJLdGvrlBO+DbtXu3fm/fgKxEgaD3g7Fclwz27R9yYYCzBtAOBADkJlrXP/76h7kM+lqzv3X/Bvu2kZI+2kpLBj0XRuz7iVyOStbWQhcGnhhkiQC5IQAgc5rtv3T0Ui4lfs3yZ+/baG49sJGmPRSCayq8MpZbdUDbCqMlAiBLBABkIq/ZftStP/vwkJvpM8tHkemAIoWBHoWBjHsHVBU4+MwWGwQ2UBVAJggAaIlm+2/YQf9du76fFQ36tx6wpX076FPaR5n12jDQrUBw5ZNMwwC9AsgCAQBNUSf/8dc/yqzMH830v/rBdgZ9VFIeYUBnCxx8ZrPZ98SQAdIiAMBbHmV+t6ZPeR+B6VUD4QcLYSALWh54/ug2zhVAKgQAJMp64I+2680+toVBH0FzDYSj42bFLz/M5EKj6GKiF45sIwggEQEADV0bnzJv2IE/i737bl1/x6Cb6bNHH/gmhYEVv7iY2dZC9QkQBBCHAIBv0MD/0ouXzGk78LdKs/2v7Exfh/Mw2wf8aImg91cjmWwrJAigEQIAFmU18Gu2P/v9zYsH9ABoTpZVAYIAliIAILOBf/GQnh1DzPaBjKkqkEWvAEEAEQJAwNTcp4FfzX2tcGX+H2xnbR9og+gY4t5fjZpWEARAAAhQFl39UZlfW/jm+3iAAO2W1fLAC0e3c+dAoAgAgTl+7EPzk6OXWh/42cIHFMLiVsJfXGo6CETnCHCgUFgIAIHQkb0H9p8zE+PNPSAY+IHic30CBAF4IgBUnBr8nnryXNNH9s6tW2vX97e5xj4A5dBqENANhK++toNlgYojAFRUtM7/0tGLphkM/ED5tRoEnn5mizl4aDNBoKIIABV0/uyY+RM7629mnV+l/ps/3MHAD1RIK0GAZYHqIgBUSCvlftb4geprJQjojoGfv7mbakCFEAAq4ie1/fxpZ/0M/EB4tH2w98JoU0FA2wafP7LNoPwIACWn7v7Dz1wwV0cmTVqzDw+ar364k4EfCFB0jkAzBwppWeC9v3qCakDJEQBKqpVT/Di5D0BEQWDlz94zPR98YtKiGlBuBIASanZPv+vsP7ybgR/ANzTbH0A1oLwIACVz+NkLqWf9rPNjqa4vbhjz+Q03++uerD3w7a91fd64h2R+3cIDfq529LOOgI5+DdWhZQEFgbSoBpQPAaAk1OG/59Ezqdf6Ve6f+fEw5/UHSrO57k8nF95/Nml/fN39OG6gT0uhUtc+6/383etcKFBImL+nz4VPlE+z/QFUA8qFAFACzZzf7/bzq9x//0aDcHTZQV7nwnePTrj3WQ70zZirVQkURBUS5hQKqBqURrPLAq+8vsMcPLTFoNgIAAWmRr8DT55zB/ukoVK/TvGj3F99KuX3/HrMdF8dNz1XPun4gO9DoUBh4Nb9GxYqB/YNxaXXlKsG/PKjVH+O64aLjwBQUB/bUr9K/mka/WjyC0M06PfY8qzK+mUY9OO4QGBfs7fus4FgaIBlg4LSssDqH51KVQ3QksDb7+wxm4YIeUVEACgglfy1tz8NZv3V121L+r0ffGJ6bFm27IN+HAXY2R2DLhSwXFA8zTQJ0iBYTASAAlHJX13+p0+OeP8ZZv3V1/urETvoj7o1/dAQBoqpmWqAlgReeW2HWbOWSUpREAAKQl3+Ox86larkz6y/ulyZ/88/Mit++WGlZ/tpzN6/0fUN3HqYS2mKoJneAHYJFAsBoAB0sM/e4TOpz/FfnB3ZByPrptXQroFfD+L1A2vcg1gzsrX2rb9/4aFc/3DWx9WHUgXV6ekb7rWqX3c/tz++OnLdtEvUM+DCL1WBjku7U0CvtxNv7jaPDLNDqdMIAB320osX3Ra/Vs3uGHJn+8+xFFBaKvW7B+lkc3e3L0cD+L1D61wT1qbBPve+P6fZlwKB3j4enTTjej8y6YLB9FR+QYbXfTG444RfPWuXqSa8/wx9AZ1HAOigZk71S7I4O3psM9urSkLNfRr4s1jj1+D+vw1vMIN2sNf1rf0FKLXq8CoFg8u20vXri+O5VAv0uldFgOWBzlH1auWfvZ0qBDz9zBbz8ms7DDqDANABmhFpi9/79mGYJz0UZ+0D8ZZdJqBUWjx6YPaeuuTK/a14cHu/K6fu2r2xEAN+Ei0f6LWfRyAgCLRfq8tWqkqdeWcPfQEdQABos2aa/bKgA1fUL6CTAQkDnadZ/6pXzzVd7tc66sFDm81BO4NaW/Kuan0vKBCcPjVi3/vPHuNEQYDdA/lx21LtoK8Zf6v9KjQHdgYBoI3SHu6z74khM9817x6K1zIMDIthQA9HlgnaqtVZv2b7zx/Zbrba8n4VqTrw7tkxc/7cmH2f/nra5ahPgCWxbESz/d4rY+4QqiwRAtqPANAmGvw18/ft9Nd+Wc3uIjobIMsZUsT1DNiqwKxOYaORKlc6p3/1kTNNzfof3z9onj60JagT1bKuDCj4fvX9zVQFUqo/eTLvsyhU2dJywIMVDbhFQwBoAz3ADuw/5/Wx+gbQ0ZmNZnh6KC6EgdFMqwLCkaz5UanUdfinLJVq4H/BzvjLsLafJ73utWMmq2qYO1Pg4UEuy2pAg373yLjp+WCsI3dMnDi521VAkS8CQM7SDP7rayUw34f95drs6K2T6a7s9MUpbNlY8bMLqUv+VS/1t0IB+KUXL2USBHSIlkIAobc2078w4gb8LO+YiPpV1KiqJVDfrxs3CuaPAJCjNHv87611wjYz04vWTfNYIohQHVieHprGlvR7PrXroZo1XZ825vMv7duMe4CmfZBySIo/BQHdm5HlLoLF0BvALYV67XbZ163ul9BsP+s1fYVYHf+r3SlRo6p2QD315Fnv/g7OCsgXASAnaQZ/lbpetmk3i27uaN006wfjUnpQ6o73hfcDpuqih6Ueku7t0+vu5LMsS6Pq+dDDruxd/e2mSthPassDWVoMvfZ1XoUq2GJZ/+qEey3ntZ7vU7166ah9Pr7o93wkBOSHAJCDNIO/Hvqv5HQQhsLAu+fGzBuvf5R5v0A9lVHr73evQiDQ4N6jWdG/v57L7Kieln4066fc35qoTyCvJTEXCNzru3+hQnBPX2ErYUsDa8/IRKqLe9JqZlsqIaDzCAAZSzP4q7nr+aPteVHrNLZ/apcIVHrLMwxIFAiiCkGRH5SR+nKoOp7zfFjW02zp7Xf2MuvPUFQFy6pPIE70WtdrfG7dmoUf26DQjmqBW37SMpN93er16pabJqczXb9P0mqvCiGgswgAGVLZ/fAzF7w+tp2D/1IKA7qASGuo7brEJQoCtzbZ2ZMCQQHKqXk1PflautUT2cu7UTaOXuOqGrjbOvX+zlULP7ZhWO/jbvHUazF6Pbqlpi9mXG+JG+C1jfSLGx27JVKD/oPbBjI7hErPoQNP+jVKEwKyRQDISJpu/yI9+KNlgvNnx3JrIFyO6752BxGta1uVYLEsOjrh1j/z3tPcSNJWT2Qvj9MGQxIN+mrqy2NLapoQwBbB7BAAMqDBc++jZ7w+Vmu9+iYqoughqVPY9JDM8xa35URrrAoFbgmhhUpBfXe+1vGj9dBOzZoiabd6InudCr1l0+47Jq7WDkvzee4QArJBAGhRmhP+ijz4L+dy3Ywp77XURhbXWPvWGHPXHa6Muvh7tXBQXyJ13fkqn17vzN83Duv9xUNl4DZVpnYNbzBb7Ux/1/DGjrxOfUOA/q4K0iGdjJkHAkAL0lzsU7bBf6mob4BZU3Py3O2B7FyuVcDyura4SKIBf9AOokW6SVLPmj/87onEj9Pf/8PfHuDugBYQAJqUZvCvWrNXdJ2rHpSqgFT9QSl6OD5gZ/B6WGotVJ3LCkM+OtnwiebVX1scvc7bvSyWFQ2W/QNr7Gt4wAwO9rmz9ou8DOXbE8AFQq0hADRJCVVJNUkID//63gE9JDu1XJCl+nLo0oelHkx6QPlg8K8Wfc/r9V7kUKDX6r1D69ygWIbBvhHfEKBlAIWANSytpUYAaMLhZy+Y468nn+0e6sP/qnswTpYuEERNT5rhN1pbTDP4l33ZB35UKdDrXUHg6uhCQNBrXj+fGJ/OPCBoMF+zdpU7PlyD3oD9+fr+te41q59XqcfkDfucfe7Z5K3V+j7T9xvSIQCk5HvQDzO/26IKQf2sqQjSNj2FMvi7gWtiyn3dosErGlj0ftMgjVdp6XMZLRfqcxp9Xqenb3ytgdh9jtfcfh1qFh993qs2uPvyPSyIMwLSIwCkoCa4ndtPJX6cBpUz7+w1WF40Y/rYzpbUdKXZUjtCwdJ1/DQdxGlOeCzT4B/NWs+f/WTha2LffHa06HOntyhAUX5Fng4/+56tun6U+HFaCniQ8zW8EQA8+Tb9KbH/5rcH2OqV0tIyavTjhbcZr2bLSLQGqkFJg73Ko3ooNPs18R38y3TAj8LsS/bf5Dvgx1nrKikbbdVrG81YyM3Oh04m7kBiZ0A6BABP3/n2Ma/Bn0Ne8hWVpZcOWgvrotmXSNMM/mXYl6wljNOnRt2STB4UtPbtH+SQFmRO3/dbvnsisaeIpkB/BAAPPoOAXmya+TP4V4fv3Q5FH/z14Dx+7CPXuNrqbN+Xvg/UA0MQQJY0AdAOrKTGyqef2WJe5tyNRASABL5bUbjYpVp873Yo+uCv16+6qNs18C+lisDP39xNSRaZUd/Q9x5K7sXScpx29aAxAkAM33V/Ov6rReviWzxOIpOiNvxpjV8BJk3vRJ40I1OHNmVZZMFneyD9AMkIADE0+CetlWrv+Ht/td+gGsp+t4NC61O2YpXXGn8rWBZAlhRwVamLowqUKnRYXrfBsrTun/QQVbI88eawQTVo8Nzz6BmvwV9Vn6IN/torrfXRrAf/rGbtqkbooe1zsAuQ5JXXdyTO7vW9oF4eLI8KwDI0EPzBt48lftxf2GTJne7VkOZuh6It+WRV7o/ufI/2+C/dVRFt1dT/Tw/WVi6F4gx3ZMHn9kCWAhojACzDZ8sf6/7VUebB3/dY6kb0cDx4aLNrYE27hVKB4N2zY+7I53fPfmLSUghQpzaNWmiFTz8ASwHLIwAs4bP1S0nyb/72kEH5aeagsrnP4F+kK32j5QqfC6mWo9m+ljCyWo/X529h2Wwi9d0PHOGKVvkcEqQlg4OH2KlVjwBQ51ptj2nSGvBf28Gf/f7lp8FfM3+fQVQD5YmTxbhsRI1Pzz3T3NY+DfzP2ypGXktXCgLaeqhzB9JcgqOTBF99bQdlWjTF53wAlgK+iSbAOi+9eCnxoaoSMIN/Neh8B5/BX7euFWXwV8lf6/1pB38N/OpZ0Y6VPPtW9L2hGb0OxXp8/6D3n9NSgsJYFa6SRvu5HSYJVSSFg6c8znQJCRWAGp8Dfyj9V4fvzX731o4V7fTdDnp4qeSftsN/vRuQO7f1Tp9jBWvfgV2zNP19KdWiGT5LAVwYdBsBoMan8Y/SfzX4nu9flLsd0jQpRlpp7sua/t66zS1NoyB9AWiGz1JAf+3CNg6lMqbnqGUCp8a/f/b2v4v9GJX+6VYuv7IN/jqYaPh7b6Ua/FXuP/sX+9zrdfXqXtNpCiD/+96/7378/iW/rYOqdFwdvW42b/l9HtTwptfaKvua/8sLnzX8GIWD1XesoApgqAB4za4o/VdD2QZ/BVP9fX3X+1353M6ai3wnhbZs6cAi3wZBzgtAM5KWAvS9omd66OEy+CZArU8m7vlnv3/pRYNpkqIM/mr2O5yi01+zfpU1i34hle4E+E2KTmx9b+pehvNnxwzgSztd4kQ3ZIYu6AqAz4l/u4Y3mDPv7DUorzLd7NfM/v4yHkpFXwDy9tSTZ81bJ0djP0ZVgJCrS0H3AGiWlfSg1Vpqp5uo0DwNqHvtgHrjxmzix178zf/R0cFfR+x+L0Wznx5cuvK0iLcRJmm2L+C/TM+YP9p5jwGS6Hv59KlRMxPzvT9tX08h93YFuwRwrXZgSRztY6brv9x8znYQ3ezXycFf/Qk7t5/yLvlH2xPLfheFZvX63PuuxaqHQF3enBeAJHp2H3xmc+zHaAwI+bUUbADQwJDkhYR1JBSbT8gTHe/bqVl01ITq058Q0Z7+IvQpZEWf+zR9AdEFMIQAJHn60JbEcOkzFlRVkAGA2X8YRkeT19EV8jrVOKeSvwayNIf7KKzoVMKqLUtF3f6+VRiaA+HDnYfhUQWYbuJY7SoIMgAw+w9DUn+HQl4nmuf0sFH/iUr+EylOyNNRvkXv8m9FdECLb6OfPo/q7/hJwDM4JPOpAoS6IyC4AKCHRtKMi9l/GP5BB5p/NOvXGnaaK3y13q+Bsezr/b7Sdvu/dPRi4nWwCJdPFUC9JSFWAYILACoZJu77Z/ZfCUllcu2zb9c6cjOzftGMv0rr/b6iC4V8+wJoDkScpCpAqOcCBBcAksqFzP6r497B+PXkaB1ZhwTlRQ8WveZ010SaWb8eVlrv11uo21A31XY60ByIVvlWAUIT1EFAl7XP2s7A4nDhT7XooCefAcFdJ5rhrXnRjEKDftqre4tyGmFRLFzjetb70CB93rS1kLPeUU+vo9/71suxHxPaTYFBVQCSToXSF56HbrVoIPChaoBOC9RM3R0Q5bGDoJ4eLvozqiZoFqr/jtam0w7+B2tH5fI6vE2zN53G6dsXMBFtraQ5EHX0OtLJrnFC2xIYTAXA59hfba/q1L3pyI+OnD3+evr1PZXe1YC3fmDN1wbk+jX8a+PT7rU10WLZWQ8nhRVunIynUJVmYOf4YNS7fHHhtM04f/e754K5JCiYAKC9ngeebHwePDf+VZtm97oToIh0kc+JN4eZ9XvSQ1zfy75r/btsqPp5itMGUW1JNwW+8voOc/BQdbfb1gtmCSDp4a+HMKpL1Z2izQSjRr/3/mo/g38K2g6Zpjnw3bNj7BDAoqQq2/kUF1SVXRAVAJ/yP81/YRgdmXSHx3R6MNBavwIJF001b6J20ZPvzYnRaYMh3/4Gv2bAvx6340F/9V8nQVQAzp+LPy6U5r9wDNo1fS316Ba9TlR99P9Uk1/I2/uyEp0cmLS9KxJt+yzqUhDaQ5W3pO/9pIbxqggiAJxO+GLu2z9oEBaVAVV6V+VHZz/kOSvUA0f/Dx3lq/9nJ28drKJXXtuZ6vhg9YOwQyBsSc3el1Pcz1FmlV8CoPwPX/qmV7Xo1/b91ZHrplWaZShoPG4fNsz286dTPtUc6Huk69N2GeZlW4lBePQa0bgQ91oJYRmg8gEgqfv/wVpDEVBP+/e1tvzx6KQZtyHy49o6s7b9LbVm7SpXQdDbgH3TCYSa5TPot190BoBvj4e+TmfschB9AeFhN0AAAWDPo2dcF3AjIW35AEKQNgTQHBgmJocB9AAk3fz34LYBA6A6NKB/+NsDiae+RaLA4LubANWQtB1Qr4eq3xBY6QCgs//jvoBK/DRkAdXTzPHBf5jzxVAolqTdANO1ZcAqq3QA+Djhi8fhP0C1pT0KWFdEs0MgHEkTwPcvTZgqq3QAOH82fv//Vm4LAypPIUBbMH2PAtZ9A889e8Gg+nbtjl8GqPp2wEoHgKStXKz/A2FQ2NehQb6NfrobnuODq28woQLAEkBJJTVw6EHA3n8gHFG3v2/fj54haXYToHxUFYp7PWgMmZio7te/sgEg6YumhwHf2EBYohCQ5vhgdghUW1Iv2PsVXgaobABI+qLp93US1Hfsm/aCvn9p3ACovoVbGHeyQwDOpsGkZYDWTwUtql5TUb6JXd/cEydH3KEQosMfHhne4N4nvTAAlJeaAxUGfBv+tENgemqmcNdKo3kq8U9Px+/1nxj/namqyp4EqMTeatlO5UIFAZWItE5EIACqR8+JPSmuiOYOgfLS0rCqv+ru//XFCTcBTKJxQPfFVFFlA8CdXS+arOls9wdsINhaCwTsIgCqgTsEqunq6GRtwJ9wl3xNNXmy39/97jnvbaRlUskAoESvCkA7RBWCrbUlgyq+SIAQKATstZUA38ohdwgUj3q59PU7f/YTdxDcVEZH+WoLaRVPja1kANCVrnuHz5hOcL0D9oWiPgICAVA+h599zxx//SOvj1UIeNtWAjhSvDOiGX7WA/5SJ07uNvueGDJVU8kmwE5u79OLUW/HX1/oGK6vELBkABSfdgisWbPa60jgaOlAt4pWcYAoGq3h63bXUTvY/3M76E+16bKeql4KVMkAMFWgL1YUCH5iFh4m7DIAii/NDgENDgf2n7MTj2l2CGTMXcgzulDS18A/0aHJ3YT92lZRJQNA0otk5sU9xty12vRcGTPdn02a7tH2XfgQBQKp32Ww1VYHWEsEikPd/irtqy/AZwaoOwSEENCa+rJ+UQ7hmZr60lRRJXsAdj500r5wGg/qX544YObv/vrsu2d03HR9Oml6Pxiz76+bri/aX0WIwoDuqaY6ABRD2h0Cu+z378/f3E3/j6f6Wf5bJ0cKVcGN6Nmshs+qCTMAvHXIzK+Ln227ysDIuOm5Om66J6dM12ftPQ0qqg7ssssFqg7wMAE6hx0C2dKgf/rUSO7Ne3Hm715nbg0OmDk7Gbw1NGDuePxYw49VJUg7AaqmkgFAx/vGLQP81788YtLqsiGgxy0XjLd92UA0q3ikFgZ4qADtp0FLpwFq4PJBCPg6bdHTxOxy3TJou8zfudrM31Mb8GuD/vxdX59UKQB0XV9+3KjqYUCVPQo4a/N9a82sfTP3374/up3LBmqA0ZuoMrBv/yBhAGgjVeG0HWz9wBrvHQJbvnvCnLDLAVrWC5EG/U408EUD/ux9G+37Pjfw45sqWQH4vW+93LBpRwP5l6fzSXJRIHDLBiMTbekjIAwA7aeGP58QENGuglCaA6NBv53r+VkM+HEVAPliPn3luOgqGQDijgHOMwAs1e7GQsIA0D7n7axWN4n67hGvcgjoxKA/N9i/WNLPYoa/6kcn7TO78dIuAaAkihIAllIgUA/Bwvt8ewiiMMDhJEB+0u4Q2Ld/yLzy2o5KNPW2e9BX4/at+zfYt43LruG3igBQEUUNAPW6Pr+xEASujLkXXVzpqRW6wEgNhAoDnEQIZC+ki4TaOeirrH/rgQ1mbtOAG/SzHvCXIgBURBkCwFLRtkMtF+RVHVAn68FnNptHdm9kiQDIkJYBnnryrHnXDo4+yrRDIOre1/HmeQ/6WZf10yAAVEQZA0C9dlQHoqqAwgCAbKRpDizyRUIKNMePfZT7lj3N8ueG7KB/38a2zPLjEAAqouwBYCmFgZ4LI7mEAT2Enj+6jcZBICNpdwjoIqGDh7aYTtOgr5tUT58czXfQz3ktv1nsAqiIuAAgzRwEVBRaKuhVGLjySeZhQA1KLxzZRhAAWnTarpEffvZCKXYItGNdPyrtR4N+EREAKqLKAaBeXmFAOwhesFUBmgaB5unY4D2PnvFuDtTlQy+/tsO0Q1Ti11ZG3+ON09Kgr335t3YMFWaWH+eO4Zfd8msjBICSSAoAPncBlI0LA3/+YabLBNHyAFsJgeak3SGg8K0dAnltE9Rs/6Wjl3Ip8S8exvPwUMfX85vx3/2v8eMGAaAkEgPAMrcBVsliz4AqAxkcPkQQAJrX6YuEotl+Hl38ZR/0I7rr5Y59jS8DEgJASSQFgJkX97gXawi0RND7q5FMthZmHQT0YJqYmPrGg1GzH51foCuRuQURVXH42ffsIPyR18dmEQLymu1XZdCvpwPaVv/oVOzHEABKIikA3Dy82714Q6KEqyDQe2G05SWCVoJA2u1F2iKlsujThzbTnIjSS7NDwF0+lPIioTxn+25Nv0KDfr2eK2Nm1ZEzsR9DACiJpADw1Q+22bftJlS99sXe+8sPW64K6CyBV1/b4TUwZzEb4Xhj+NB6+1NPnnOvtSK+Zt6wg/Nzz17w/nifHQJ5zfbL1sjXLD0PV/4s/mtCACiJuNsAZXbHoLn542ETOlUFVvziYsuNg+pe1gNquXK9u0PdPuy0LSoreqj//M3dTVcEtOygv1f0GtHfu79/LcsNFbFcqb2dHfY+tOyl5sBWtgnqz54+NeL27WfZyR9t2Zt9bEulB/16K3/2ng0B8cszBICS+M63j8XePa19qDdOHDBY4E4etFWBFb+41HQQWG5ZQLOSvcNncttb7HOAih6SV0cn3T5nzY40O2z091Hfwb12yWFh2aHfHY5EKCgfHcn7lh0UlyraGfzNXiSkP3f61Gim+/bduft2YqTyfruP4C2CpFMA9Xz7678t1wFyPoIMAEq1X559zuCb1DTYShCIHlJvHPvQ/OSo/2lozWpUHs3qcBOOTC4f9Zd876HlG7qKdgZ/2hCgkJrloK9jeDXTD3HQr7f6wAm3lboRAkCJ/OF3TySWxKp4FkCWWgkCWT6kfCh0qFlK6td/s8RWyHKJ67gv2hn8aS8SalUo6/q+VAHVIUBx9Fr5zW+rVzWuZADY+dBJd3tVnJC2Arai1YqAr2jr31Td2nwaqgSIuqzzVKZb3EJ3YP85t0beSFHO4I+kvUMgDc32Z7+/udBH8XaKzxZA9R3p+75qek0FLTyc4wOA1nsIAMlm7SxBb1kHAQ34j9dK60rXa+vW2hUCVMHRxSSaFfmUR/Me+CMq2f6BXWIq2uCBbzpxcqEq1CgEHH5GZ/XPdOwM/qWiEJtlCNBsXzueQi/xx4kr/UfWrF1lqqjnqGUqRgPHxyPXYz9mfmWvK4HBz9w9fXYGsTDgdX923XTdnDXN0MD/o+fuN6fe/ofmH9j1dc2oV6/+eg7Vz/XrD++8x3Vv68dXR683VRnIy7947zPT1dXlZgYoLu2hvzY+7RpBl6OloiJ9Hbfav4de7+9fmjAzN5r7HnOz/T++39x8ca+ZfeR/dDegorEVb18x3f/hP8V+zP+05fdTncdQFpWsAPR7lGd9Uh++SbMJHQai7YO9vxpN9WfvrXVh96csn2uNXw/oNMeptkNUdSjKDBLLS6oE6Os4al9X2lpahF0fer2rKpbmIiFhtt8cn7Ggv6JLftUMAP3JXyw1fnTZL3yV7wTIi2YUNw8P2wfOgPeygAZ/raGtbfIBq29ANeEkresm0fY+/V0G7H9vzZrVbrlIlYVrE1Nm3D5sP7YDQVL/SD0NHioPshxQbEkh4N2zY2an/foXZZvgptr3i+8OgRs/fcJ9PyIdPbt0HkqStRXdDlzJALDmW35fLF2aM0sAaJp6AzTbWP1/nor9Jlpfa5zL4ptID3KVc9NUAjToq3z3+BNDXn8H9SBoQNBg4RMGdAKbrk4uSlc5lpcUAqLDeYrS5Bk1nPpUvhTEZ346YJBO96f+FzRVUSV3AeibRVsBk2jwmvlp9To72023aMUFAO2fzfIbSI14+vom9QToIa7tgVtbWN/VCYYvvXgpcRa2XJewgor+rvV/Ty466rykKlLRdnro9aNgkhQCqAKkt/LVc67BOYmqj1UM+MH2AIjWfrQUwF7Y5mkLTdzgr07/rNOz/nsHn9kce9DQwdrxxK1WHXz7D9RMpu5tLQfoACItJSSdhaB/h5YjHhne4E4dZGtheyRVAhTattiAmfYinrwoKOrcgqTQ23vlE3OTAJCKqsA+qACUTNJ9ABFSc2uSztDOevYf0ddW2/GWfo31sNRJhBq4s+ZzvkQr9HfWqYNaTkD+fPpJirTdM+kSIU44TUcTQJ0AmETPlL/7XTU/r92monwHHaVmNK8rpoP2wdqWpjzom3KXnTkv/TWVbvMY/OXMO3tznaVruWHn9lOpjoZF81QJSDrZUWcF5HU4T1raEhu3bKRqZrfnjBbG+3NV5d6eygaAe4fWeX1cz6+a7yjHwpkAjTyyZIDO2tYlM2XN/PP8Zo3uZ8+blhNU3SjKwFNlPiEgzxP60tLSVxy2N/vrveC3jbmqhwBJZQPAoOdAQGpujT5/jajRLU/1g/0LR7bnNvOvp4ZC9TW0gwYeXWxFNSBfviHgwJPnTKclLQ8RAPxo+5/v54oKQAmlKdWyDNCcpP2zeXe5R8sL62sX9bRLOy8ESntbHJrjEwK0ROOz+yRPiRObz4tzWmaR6fpzX1sr3JNT2QCQZvbJMkA+fM9jaPq/bwNGtO7fTltT9jboY6O3ZhAC2sMnBERbjDv1tdDrPe511P35jEGyFTGNy0tVeXdOJbcBir5J9M3ik9ajZQB2A6SUsH3y2t9OeZ3K2Aqt+3dii84D2/vNxMnlB4G4i45Eg4jeLl8ad5cd+bxGoxCg/cicH5CfpC2CEn0tuBWynNz270m/AJcUuMqushUASXPBh07SQjradhR3hsLERP6zpHas+y9nuVKsHhY6e0BbH199baerFCx3DoFCgf7eP39z2G0vUmOhz0CigedwzDYwZMOnEhCFgE7cTTE1RZm/Fb0pZv9VP92z0gFgq52l+dKBEF2sn6V3Z+MAcDXhRsYy0z0C9XSgj2bnutI17eFDCgN/Y0PDy7aakTS71zq0dgkgX2lCQDu/HteWnCy51BxHm8fSMz7N+v+DKcaQMqp0ALg3ZRd6mmSIBbcGG3+DaLCqqvqZQXTRUaulQu3zVohIqgaoG71IVyNXlU8IiI7pPX7sQ9MOlxPCxlzfGoPGej4YSzXRq3IDoFQ6AAwOpQ0A7fkmrpK4vgk9HFu5ua/IFAB0PKvK91lddCQ+59Br5nn8GGG1HXxCgLTrwKCk/wdXAcdLu9TLEkCJqZyapoTjykPsCEjl1v3xZ6XrvP6qzlZ1TrzK91lfFdpfu8QoTpWrK0XjGwLyPjBIX/OJmN0Hc+vWcr15jKR7S5bS4F/1httKBwBJm+B8T4fCAjUBxi0D6IHFiXbpqYEw7tQ3fV7pBWifNCHguRwaNbX2n/TfnRus9np1q1b84mKaD0/VRF5WlQ8Au3anu81LzYCcDJjOVz/YHvv7usQkq6WAj2tb6EKg0w3jnD9XnQOsorX0O7tedO+LuHTkGwL0et/z6JnMKl/Xas2GSd3/Sd+HIdPJfz2j6S7y2lrxBkCpfAAYbKKMw5bAdNQHcCth9qGb11ptlNKgoAdhKIfiJC1hvXvWv5u56N6wr42ooqH3er1kOYhmxTcE6GuTxetU3zM6eGgi4b8z+/Cgme/jTIJGmnmmh3ArZ+UDgB6imzwvBopQBUjPZ/ahRil1sKd9KGoQ0P53DQqaBennV0fDqALE3Uc/kbAlrEyW66PQINrJU/ca8Q0BqlS5bYKXxk1a+jP6s/qeSZr5a+2f2X9jmv33XkhXUVL5P4QDtyofACTuIdoIVYB0VAWYfWxz4se5K2/1YLMDetKDXYOb+gd0Ic7x179ePVjfH8ZsJ2kWMlGRSkijpbqiHoPsGwLc3792xbMqWHH/Dh2cpRm/q3Jt9z9f4KsfbGP2H6OZZ3neN5kWRde8ZSpO34QaRNK68dMnOB44pVU/OplqrU1Nmgtpe5WbBS7M8Gfc7CnuAfjF/BETAoWg3/vWyw1/33cgKgOtnTdqdIvufCjatixVpdL2K0Td5esHFvbsXxufdsGgmTCnmb8CAJbX9dmkuePACZOWzuOo+hZACSIAyM6HTtoBJV0TyJxN1TdOHzLwp202q390ypXd8qJtcjpuNxQKAI1K/VUKAJK0la6I/95mni1ZmH14yNw8vNugsdV28E97RbLO4PibQJ4vQSwBSDNbOrrtYNbD4UCpqBSpysn8OkqSWYk7Z6AqSwARHaUct/1RM+6ibSs9887etl8KpJk/g3+83l+NpB78pZkl47IKJgA0O2tYadePuCMgHRcCThwws/fns47GZSi3VfGmslde2xm7+yHvA3fSUjk/6eCmrMzfudrM2IGfsn+yZvu49j0xaEIRTADQg7KZix00+Pf+UxoC09IBQTdf3JvLg2q6thMgFHGz/LUV7VTWrDpuDbZoIUAHN+V9cczsfRtcsL71cHWWfPLS+4uLqU79i6iSE8Laf6TnqGUCoS7bZtbqev7mP7oztum0Tc/tDrAPLAWp7s+yux3wH+79+2Zd312m6hR0fvrylYa/f33yC3P50rjbFvmxfbt+/XMzMzNb+s/N6tW95o923uMOO2oU9tQk2tXVVZgT26anb5h/8d5nJms64e/m4WEz+8cPGHNX9bemtUr9R6uPnDHN0NHeet2FIpgmQEnqqI6jADBj17bRPCVyHcepXQKtNgm+8voOc/DQFlN1Gty/t/2USUuVgQfswKjtTGVuEvTZBqiHdrtK8HGa3W20HJX6b+0YdHdtcMFPOitfPZd6339EzcVVXFZrJKgAIK107M78cIe59Vj1B512UHNO98i46bZBQD92fRafz7jfm+9b43ZguKDQoIynWZ+2hVWdzk3Q4UmtUBjYNbzRvHBkW9ub1bIQHagTt+xTlBAQt2Nj7u4+99pWc7Fe61EIdg2zd60yt+7pM3P/g/0Y+55Bvzlq/Fv5SnPfL6E8U+oFFwB0n/b3Hko/oxKta2sNjg739lj5s/dM7y8bX3v7d797rvKndWnwz/LmPw2UZQwCPt+3RQgBcQFg1s7ob/542CAfrvSvLchNrP1L1bbU+gimCTCytYUjHjVLbTZdIr3ZhKuGjx/7yFRd1jf+RScxFvGynTj6vn35tR2xH6N/m44O7mSDaEjNqUWjrv9mB3+NCY/sDmf7XyS4ACBx+4yT6J4AzgZoD91tPh/T9KST46p8KZDW//PY56//ZhH30yd5+pkt5vkj8btKfJYL8nI54cx/Kof5Uem/2XV/2TW8IYiz/5cKMgA83WLzmDsboIkDJpCOBv9bDzfek6uH/FNPVrci89bJUZMnbaXTEkOZZq1JBwVJp0LAxwnXVKsHANlT6b/Vu1uSrt6uqiADwBrXFNX8ITVaClh15AwHBLVB0jKASuStXjNcVFcTBpTobIvorZnu5WhJoEx0UFDSWm0nQsDx1+OXpAgA+XDP4snmK2Vq/gup879erwmUtpC9e/YT0yx18uqAoK/+dIdBfnSOwK3B/tgLhnRl6qbBvsLsB8/K0sHLDfTbBty/U4eVLHcIkE5J1OCnNX7tdvFZItHHqxJQhC56X9oGqrMP4kJSFALOvLMn96ZHBam45Rpd2cs5ItnTgT/dn7ZWjX26hSXhsgtuF0C9LC7x0LGcnMyVL58bvaLjWKt0jvf5s2Pm/Lkx09+/1g36W5sIOBqYXrJr/T5BQOX1pDX2IlFA2vLdE4n/Ns3utL0rrxBwrXZWQVwAmH1si7n5QyYLWer5YMys+rPmDvyJhHTxz3KCDgCtbAmMsDWwPZK2BEZaHcQ0qGh3waidPb762o5S7ptfSgPTSy9e9Oop0EDpW0l5v9akuNVWJTr1efI5KEjyCgF6vej/n7Rc8+XpQ1QAMtTqlr9IiFv/6gUdACSLKoAOrZn5xwdiO9bRGvVb6GpPnxMEVR5vpuyrAU3d8dFMTn0iOpO+KnzOz/e9annpAUWdPF9AXy+f7X9ZhwDfwX/24UF3lC+yc8e+Yy0P/qHP/iXIJsB6z2fQ/al+gJVHWitFIZ6rtOiaYY+QpQfyH3z7mBug3k/YmiX6GD3Id27/ehl3emrGVImqI0nr/Pr3+2wPXHqOQNRM2IltmdHAnsS3WuBDrxmFjqTBX3R1L7Kz4mcXWh785YWj3KgYfAVAsqgCyE37jT7LNZ25Uj+AK/2l2IGx0C2vxrl1i3t9NXtTmf+fn/2k4fXCj+8fND9/s3ozN52f8NyzFxr+vj5HmhnF7YvWksJPjl5a9s+q+tKJhkzfY5NbqQQoPBy2nzv1Z/jQ4M/VvdlR09/KFrf8CbP/BQQAk00vQIT7AvLXc2XMXfiR9zbMqgYA2fPo27G7YJIuW1KAUpWlUdm9U5c1pbkmOM2yhWb85+3n6y0bMqY8txbqFr8bP91vkI0smv4ioa/9RwgANVlVAUSl6jku88iVqwTYh0GrtwrGqVoPQL2kAdznYhTNgvc+2viB3KldBWlCgOjfqi2W0S4LVTH0edGSwdWR6zYojaU+kVHb/nR7KI1/2XBNf+oByiD0M/u/jQBQk2UVgJ0B7aF1wJWvno09I6AVGgh04VBVNSrjR/56/JDbghgnqezeqRCgZs5O3XfA4J+trDr+I8z+b+s5ahm4dUGV+a6NT5tWdd2cteWqT9xd3oadAfnRUcE7htzd6d3/4T+bri+yXRKYuTHrZoVVPSVscKjP/JMT/9b9O5ejf/f/vOX3Y/8b2nEh719aPoTppMZrE9NtP59B/7+svp/TUNl/xpb95//eXQaty3rw1+y/qst6zQh+F0C9E/aFkdWFENoZsEov3BxL1Fgw+/0tbtlF260UBrJ0+lS+5/F3UtKR2Jc9byJMmuV36pa+E21+0OugH635sx04Gwr0WQ7+4rNbJCQEgDqa8RzM8FjIxRDAnQG5U7lVe6219HLzx7vN/N3rTBY0eGV9JW+R6BCfRtL0xCRd0qPtcn/ocWpflqK7EvKmWb8O+pml+TczGvxXZTz4q6k31DP/G6EHYAnf40XT0CUgM5572JEdPTzc9c0fjLkQ1jU5vViRcZUCLSEM2QFiXteJNp7p66Hxm98eqOR1oWpu+863jzX8ffVApPl3J629530s71K6KEp3ReRBa/3a4qdlKGRr9Z+caPmM/3p6Det7mADwdQSAZSR1NzeDEFBsdzx+LHa5RmvdGriyCgEKmro/fnCwr+PHDf/et15uWJ73aQSs53M6XjtDgO/ZAGloxv/Vw0MM/DlZ+co5G8izbeDUdb/Pc/DPN7AEsAw1EGVdOuz+bJLlgALTpU5xsixha4asWffe4TPmqYwHp2asjQk11/423b9XASlpcM/yRL52ULVIg/7NP91hvnzrkFvnZ/DPRx6Dv16LDP7LC/Y64CRqIMq6cSkKAVQCikfnNszev8H0Xml8OI4GLu2db2Vr29KStPoLJiamUs2ys5b10kYUAuIG+SgE5F0J0JXBcdyWvRMHXPVnYZno9t937p4+933Kdt78ac1/5Z+dcUt2WaPxrzEqAA2oTJnH/mUXAv7kBLsDCuirHw97Pex10Ixm8Gn2mWsg1LJSXuvRReNT5m9HJSDutEPRzF6DvJbobikE2pl99KZfY/DPX9Twl8fgf/CZLaz7xyAAxHjavnjy6CJmi2AxpblwSIOXGt6+U3fp0NJqkX7ubhi0v69qUqPz49OW2bMWd8pdK9UBPXh1L0DcfyPPEKBqS9IJfpTyO0vPQD0Ls2z4i6zPaRJXJTQBJvC9arQZ7hphDTjMMgqlmQuHIlpPjwY83+NjO3kymV7XagJsJO0ugOX4nLKZdWPgxyOTbjdPHJX/b7zFkbCdkvUhP0v9hX09be3ApVRlQgUgQX+OKXKxEvBZ9ukXzZu3pd8bTQazqdoZ8mnOjr/cwXMGLsdcl7ymLsy0Qg9hn2uIs6oEaPDf47GLh1v6OifvwV9d/wz+yQgAHvJaChCFAH0j6IY7FEcrISCtpHXqTv2/o2N+s6Cb95KCdBYhQH0Z+m8kBTDN/in/d0a3Xet3F/vkNPjT9e+PAOBJt8Ll1a2sUvOqI2dMbwb3XCM7Ol1QJwvOPpbd6ZDLcb0CHaoCxP1/sw69PrsnohAQd47ActRroT+nvoyk63q1rU9Lb2i/3l9+2PTymi+6/v3RA5BCljcGNvLV97eYr/50h0GxaLay6tWzdvaSz82DPtfvZi3pkBydnJZlFSBy+Nn3zPHXP0r8OFUN9u0fNJsG+76xFKHQpC1+Oq5Y35dpApTO7OfY3vbr/cVFszLnSc4rr+1wnf/wQwBIKe1d481wpwb+P3toDiwgbVXSLKbnSvZlewWAB9u0bqkBVM2tjUrled+Z3sx1vfXbuSaaXCb46gfbWftvM23zW3H8QuYH/Cyls/656S8dAkATdj50MtVFKc1gh0CxRfcM6KHW9en12KuIVXKev2edW3eOu3Mg6+OG4xx+9oKdhX/Y8Pfz3pngc2Rw1pj5t1/ezX6R9bVdJOz5T4cA0IR2HWWq/eg3ddkID63C0wFPS0+Sc5cN3XP7MBn9/up9x2LXP9Vw+vJr+S4B+ZyP38pph76i45Xz5i7tObzbHfSD9lGzn3qb8j7+nIt+mtdz1DJIRXu9tcXkn535d2bmxqzJS9fNWdP7rz8z86bLHVWL4pr/e3e5pkEdH7v4tv6/dyFg0cpe9zXtiekj+Fcf/kfT1dWV21KAtsjt/+M/NzcSXrdaU3/r1KhZ863VufQByD858W9yr6TN3rfB3PxH+xa+FmgbrfevevWce73n7f/9//4X80c77zFIjwDQpHV9d5lVq3vNX174zOTNXWlrS8e37t/49QEFpaMg13thNHbJQINvHiFAnfLD33srsUs+ojK9tglGQWBtRucC6L/7Z//3vzT//z+6YvKiWf9NO+uffWK7C15oD3eyn531r4hZ6sqS9vv/6P96wKA5LAG0qB1NgRH1Bbj7xx9m/3KZuX3QP0reTaIu+BdsGT6L7adJa/6+FEoeGd7g3qs7Pw0N/MePfeT+HlNT+ZSFF/b3D7q1fi7cai9X8tesP+f1/sgu+zrU9mw0jwCQgT2Pvt3Ww1zYKlh+K2yJdIXHlqj+2qEmzTbkubsI9p9rums+jioCDygIDK1zywT6eX1YcVv17JLD1ZHr7n2arXq37t/g1o59tl2qx0IfrwoZ6/ydseJnF8yKX7YeMH3pdaZ1/7VrCXmtIABkoBMdzewSKL+VR96OvX64noKAZt3aF//gtoHYj9X1wm+dHE29P74olp7RryUw10hmZ5bR0ol73avJ0g74zPQ7Jyr553GZTyN0/GeHAJCRdu0MWOrmD7abWfY1l5I7AVI3oaW8C0KznnuH+mpn9a9a/PXpqRnzazvgpy2vazAtys2UGvxdsO3j4V50Og9DVay8u/zr6TWvwT+vxtTQEAAy1KkQwMFB5dVsCMiKe+3oWFz799CyRG+bmreW/bsw+JeCwuLKV865yky7vf3OHvPI8EaDbBAAMqZlAIWA6an2pWLhzIByW/mz9+yMKvl43CzNPjxkvvrhjq+V0NXA1Ykg4ILIi3sY/AuuE7P+CMf8Zo8AkIN2HXCyHHoDyqv3wsjCwzXncrxOJvzqiW2xp+IpCOiUQ7dlMce/j/4us9/f7I7oRXF1ctYv2u7HDX/ZIwDkxOe0tTzRG1BOec/A5wb7zcyPh1PNtN05FDac6ACjrMKABn5t1/tK2/WY9RdaJ2f9wuCfHwJAjjodAlw1QGXVu2mYKZusg4AGfs2yW90mp14FdXxrz3ePjj/+7Lr3n43uRJi9b6Md/Ifo3i84fY018Hdq1i8M/vkiAOSs0yFAZu3DVgcIsSxQPvWXDqW9iliDvgb8vA/Fqb8Hob5CoAFfW/XcEcn2jddfOWirZe+pS23d178cBv/8EQDaoAghwJ0i+NhmmgRLzB2Mo8FWM3ANtPZB3V07dU1fX2MHXHXSz+seAlv1YYaNtDpd7o8w+LcHAaBNihACxAWBH+4wt+5jKw2ABUUo90cY/NuHANBG58+OuRDQ7i2Cy2FZAICWbHSMb++VMVMEDP7tRQBos06dE9AIQQAIj9b5e/78I7fO3+lyf4TBv/0IAB3QqRMDG9GygA6F0bYsggBQXUUc+OXEm7vd7ZdoLwJAhxQtBAjXDQPVpZ0kKvcXaeDX2f463nfr9gGD9iMAdJBCwN5Hz7T1FkEfBAGgOtzAr87+yeJMNkS3+p2xgz8X+3QOAaDD1Avw0osXzfHX23sOvA+CAFBeRR34hSt9i4EAUBAvHb1ofvLiJVNEBAGgPIo88MuD2/tt2X+vu9YanUUAKJA3Xv/QhYCi7BBYauEwoS1m7v4NNAsCBVLU5r6ldJufbvVDMRAACqaIzYFL6YS5W/dvZPsg0GFlGfjV7PfCkW1c51swBIACUgg48ORZ8/7FdGe/d4I7R+CxzVw4BLSRTu7r/eATd0tjkQd+odmvuAgABVbkvoCl3KUzOwbpEwByVKQje32w3l9sBICC0x0CL9kQUOQlgXocKgRkqyxl/qU42a/4CAAlUIa+gOVoeWD24UEz1+Id9ECIXJnfDvo9oxOlGvhV8tfJfhzuU3wEgBIp05JAPaoCgJ9otq/LeXT1c9mo5H/izWH295cEAaBkLl8cdzcKlq0aEKFXAPimsq3tL0WXfzkRAEpISwI6PfCtk6OmrKKthCwRIFRl6uSPc+9Qn/m5LfnT5V8+BIASK1uDYCNaIlAIYDshqk6Dfrdd01+hQf96ub9vRTP+5+3Mny7/ciIAlFwVqgH1XBjQIUO2MkAYQBVooO+5MOrK+2Ut8S9Fo181EAAqoirVgHpRGJi9bwPLBCiVaKZf1ma+OMz6q4MAUCFVqwbUi5YJ6BlAUS2u6f96rBLl/aXU4f/KaztZ668QAkAFlX2nQBLXQGhDwK37FyoDbC1EJ7gte3aw79agbwf/MjfyxaHDv7oIABVW1nMD0pq7u8/MDQ2wVIBcacDv+nTSzfL1virr+XF2DW9ws3729VcTAaDiqrws0MhidUDBgECAFri1fLuG33PlE/e+qrP8pWjyCwMBIBDnz46Zw89eqOyyQCNaLlAQIBDARzTgq4GvymX9Rij3h4UAEJgq7hZISxWC+XtsKNjUb+bse3oIwqSSfvfIuOm5OuFK+iHN8JdDd394CAAB0rKAgkAI/QE+3A4DVx3od+8VDubv5CFYJdH6vZvdq6Q/MlHJTv1mcH5/uAgAAQuxP8CXCwRu6yGhoGwY7P1o4H/+yHbW+QNGAABBwFPUT6AwMLduDcGgwzTQm8kp06PB/t9fX/wxg308Bn5ECABYRBBoztJgoJ4CVQ+MfSMctMYN8nZdvrs2sLtT9T6fYaBvAgM/liIA4BsIAtlZDAf2/fzd6772cwLCkgHevteg7gb6T68v/hytYeBHIwQANEQQaI+oYnA7FKxyv+ZCQ+3N6H1JditEg3aXLcm7QTwa2L+YsYP9l/bXp023/T3zxY2gu+7zxsCPJAQAJCIIFEsUBNwygzG1gLBq4TfvusMFiMWP1e81W2VYMkBHA7hjy/DR77nB3Bhm6wXBwA9fBAB4UxB49+yYeePYR0GfIwAU0eP7B82+J4YY+OGNAICmcKAQ0Hk6ue/goc3uEB8O8EFaBAC0RDcPnj41wvIA0EYq8z8yvNE8bmf8DPxoFgEAmYhOFzx9apSqAJADzfZV5n9k90bK/MgEAQCZ08VDqgq8e/YTA6A1zPaRFwIAcqOqwPt2iYBeASAdZvtoBwIA2iLqFXj/4gRhAGhAs/2Dh7bY9wPM9pE7AgDaTksE58+N0TgIGEr86BwCADpmauqGO1dAYYB+AYREg/6D2wbYvoeOIgCgEOrDgJYJpqc4IhbVEs30d9l1/f6BchzrjGojAKCQzteFAXoGUEZq5Ns0tI7yPgqLAIDCUwOhwsCv7furI9cNUFT13fubhvoY9FFoBACUSrS1UIFAYYDqADqpfpavNX0N+kBZEABQaldHJs37l8bdkoECAb0DyJvW8u+1Az2zfJQdAQCVouWCj0cnCQTIDAM+qooAgEqLKgQKBlouoIcAcVTS14Cv0/fuHexjwEelEQAQFG03VA/BVVsleL/WVEiVIEzR+r1m94N2sNfpe2zPQ0gIAAjehKsMTC6GgonxaZoLK4bBHvgmAgCwDFUKFArUTzBuw8DHCghUCwpPA33/wJqFgd6+re9f68r4DPbANxEAgBSiYKAKwejownt6C9pPA/q9dka/3r4fsG8M9EB6BAAgI1E4UJVAywkTtXDgfk5ASEUD+Xo7k9cArx/32wF+oYzPIA9khQAAtIkCggJB9H5i4vaPFRIW3mZccKiiaOCOBvbo16LBXT+O3gPIHwEAKKCpWiCIwkAUEBQa6n+//vci18anv/HfSxMqNAgvt/VtzdpV7veij6n/8dra25o1C7+mAX5t7WMa/fcAdBYBAACAAHUbAAAQHAIAAAABIgAAABAgAgAAAAEiAAAAECACAAAAASIAAAAQIAIAAAABIgAAABAgAgAAAAEiAAAAECACAAAAASIAAAAQIAIAAAABIgAAABAgAgAAAAEiAAAAECACAAAAASIAAAAQIAIAAAABIgAAABAgAgAAAAEiAAAAECACAAAAASIAAAAQIAIAAAABIgAAABAgAgAAAAEiAAAAECACAAAAASIAAAAQIAIAAAABIgAAABAgAgAAAAEiAAAAECACAAAAASIAAAAQIAIAAAABIgAAABAgAgAAAAEiAAAAECACAAAAASIAAAAQIAIAAAABIgAAABAgAgAAAAEiAAAAECACAAAAASIAAAAQIAIAAAABIgAAABAgAgAAAAEiAAAAECACAAAAASIAAAAQIAIAAAABIgAAABAgAgAAAAEiAAAAECACAAAAASIAAAAQIAIAAAABIgAAABAgAgAAAAEiAAAAECACAAAAASIAAAAQIAIAAAABIgAAABAgAgAAAAEiAAAAECACAAAAASIAAAAQIAIAAAABIgAAABAgAgAAAAEiAAAAECACAAAAASIAAAAQIAIAAAABIgAAABAgAgAAAAEiAAAAECACAAAAASIAAAAQIAIAAAABIgAAABAgAgAAAAEiAAAAECACAAAAASIAAAAQIAIAAAABIgAAABAgAgAAAAEiAAAAECACAAAAASIAAAAQIAIAAAABIgAAABAgAgAAAAEiAAAAECACAAAAASIAAAAQIAIAAAABIgAAABAgAgAAAAEiAAAAECACAAAAASIAAAAQIAIAAAABIgAAABAgAgAAAAEiAAAAECACAAAAASIAAAAQoP8GpKy+LZPo+JoAAAAASUVORK5CYII=;" vertex="1" parent="1">
          <mxGeometry x="305" y="620" width="70" height="70" as="geometry" />
        </mxCell>
        <mxCell id="7TsEF2UiCKweqi1ukegG-3" value="&lt;font style=&quot;font-size: 16px;&quot;&gt;Payment Adapter&lt;/font&gt;" style="rounded=0;whiteSpace=wrap;html=1;" vertex="1" parent="1">
          <mxGeometry x="250" y="550" width="180" height="60" as="geometry" />
        </mxCell>
        <mxCell id="7TsEF2UiCKweqi1ukegG-4" value="&lt;font style=&quot;font-size: 16px;&quot;&gt;Persistence adapters&lt;/font&gt;" style="rounded=0;whiteSpace=wrap;html=1;rotation=60;" vertex="1" parent="1">
          <mxGeometry x="459" y="195" width="180" height="60" as="geometry" />
        </mxCell>
        <mxCell id="7TsEF2UiCKweqi1ukegG-5" value="&lt;span style=&quot;font-size: 16px;&quot;&gt;API Adapters&lt;/span&gt;" style="rounded=0;whiteSpace=wrap;html=1;rotation=-60;" vertex="1" parent="1">
          <mxGeometry x="40" y="190" width="180" height="60" as="geometry" />
        </mxCell>
      </root>
    </mxGraphModel>
  </diagram>
</mxfile>
